<svg width="106" height="94" viewBox="0 0 106 94" fill="none" xmlns="http://www.w3.org/2000/svg">
<g clip-path="url(#clip0)">
<path d="M106 47C106.009 53.3623 104.557 59.6597 101.732 65.508L101.556 65.8667C96.7768 75.5086 88.4897 83.4507 78.0198 88.4231C67.55 93.3955 55.5023 95.1109 43.8034 93.295C43.4851 93.2449 43.1673 93.193 42.85 93.1392C39.5718 92.5757 36.3615 91.7362 33.263 90.6321C32.7596 90.4527 32.26 90.2669 31.7639 90.0745C31.4252 89.9438 31.0865 89.8089 30.751 89.6699C21.5715 85.8971 13.7996 79.8758 8.35131 72.3158C2.903 64.7557 0.00538884 55.972 0 47C0 21.0429 23.7293 0 53 0C82.2707 0 106 21.0429 106 47Z" fill="#412416" fill-opacity="0.3"/>
<path opacity="0.2" d="M43.8034 93.295C43.4851 93.245 43.1673 93.1931 42.85 93.1393C42.643 87.8122 41.9327 76.8784 39.5101 65.4274C38.1851 59.1603 36.3458 52.736 33.7945 46.9931C32.9205 45.006 31.9222 43.0636 30.8043 41.1751C28.2264 36.8575 25.0997 33.2227 21.3082 30.76L21.8664 30.0842C25.0198 32.1339 27.8537 35.0113 30.3684 38.7166C31.1226 39.8263 31.847 41.0101 32.5417 42.2681C33.2865 43.6141 33.9968 45.0431 34.6727 46.5551C35.1039 47.5173 35.5205 48.5129 35.9224 49.5419C37.6723 54.0097 39.1599 59.1074 40.3851 64.835C40.6563 66.1004 40.9145 67.3968 41.1597 68.7243C43.0586 79.0101 43.6309 88.5199 43.8034 93.295Z" fill="black"/>
<path opacity="0.2" d="M31.7639 90.0746C31.4252 89.9439 31.0865 89.809 30.751 89.6699C30.4232 86.5134 29.8211 82.5977 28.7203 78.8808C28.2382 77.2115 27.6193 75.5756 26.8685 73.9861C25.6125 71.3789 23.9864 69.1624 21.8837 67.7955L22.4419 67.1211C24.6434 68.5506 26.3416 70.8102 27.6541 73.4536C29.1327 76.4321 30.119 79.8987 30.7761 83.2109C31.2637 85.6708 31.5711 88.0472 31.7639 90.0746Z" fill="black"/>
<path opacity="0.2" d="M16.0351 30.7406C18.6408 30.7406 20.7532 28.8674 20.7532 26.5567C20.7532 24.246 18.6408 22.3728 16.0351 22.3728C13.4294 22.3728 11.3171 24.246 11.3171 26.5567C11.3171 28.8674 13.4294 30.7406 16.0351 30.7406Z" fill="black"/>
<path opacity="0.2" d="M17.5545 66.7565C20.1602 66.7565 22.2725 64.8833 22.2725 62.5726C22.2725 60.2619 20.1602 58.3887 17.5545 58.3887C14.9488 58.3887 12.8365 60.2619 12.8365 62.5726C12.8365 64.8833 14.9488 66.7565 17.5545 66.7565Z" fill="black"/>
<path opacity="0.2" d="M34.7659 33.5843C33.7654 38.5898 35.974 43.1223 35.974 43.1223C35.974 43.1223 39.8047 39.5391 40.8052 34.5336C41.8057 29.528 39.5971 24.9956 39.5971 24.9956C39.5971 24.9956 35.7664 28.5788 34.7659 33.5843Z" fill="black"/>
<path opacity="0.2" d="M19.0859 45.4664C24.4698 47.2122 29.8798 46.0919 29.8798 46.0919C29.8798 46.0919 26.5609 42.141 21.177 40.3952C15.7931 38.6494 10.3831 39.7697 10.3831 39.7697C10.3831 39.7697 13.702 43.7206 19.0859 45.4664Z" fill="black"/>
<path opacity="0.2" d="M18.1729 77.3599C21.9466 78.5835 25.744 77.7853 25.744 77.7853C25.744 77.7853 23.423 75.0031 19.6493 73.7794C15.8757 72.5557 12.0783 73.354 12.0783 73.354C12.0783 73.354 14.3993 76.1362 18.1729 77.3599Z" fill="black"/>
<path d="M52.8912 57.4081C64.3026 57.4081 73.5534 49.2046 73.5534 39.085C73.5534 28.9655 64.3026 20.762 52.8912 20.762C41.4798 20.762 32.229 28.9655 32.229 39.085C32.229 49.2046 41.4798 57.4081 52.8912 57.4081Z" fill="#D0CDE1"/>
<path d="M44.82 53.1134C44.82 53.1134 47.4028 63.9927 47.4028 65.1379C47.4028 66.2831 59.671 71.4365 59.671 71.4365L70.6478 69.7187L74.5219 59.412C74.5219 59.412 68.065 50.823 68.065 47.3875L44.82 53.1134Z" fill="#D0CDE1"/>
<path d="M101.732 65.5079L101.556 65.8667C96.7768 75.5085 88.4897 83.4507 78.0198 88.423C67.55 93.3954 55.5023 95.1108 43.8034 93.2949C43.4851 93.2448 43.1673 93.1929 42.85 93.1392C39.5718 92.5756 36.3615 91.7361 33.263 90.632C32.7596 90.4527 32.26 90.2668 31.7639 90.0744C31.4252 89.9437 31.0865 89.8088 30.751 89.6698C27.7094 88.4202 24.8086 86.9172 22.0875 85.1812L19.6382 78.8807L21.015 77.949L23.8469 76.0315L26.8685 73.986L27.6541 73.4534L39.5101 65.4273L40.3851 64.8349L46.5475 60.6633L46.5491 60.6619C46.5491 60.6619 53.2133 70.2914 62.8991 67.4283C72.5849 64.5652 72.3732 56.3555 72.3732 56.3555L101.732 65.5079Z" fill="#2F2E41"/>
<path d="M34.973 24.3226C34.973 24.3226 41.5332 11.718 54.1068 14.6267C66.6805 17.5355 73.7873 21.8986 74.334 26.2617C74.8807 30.6249 74.0607 37.1695 74.0607 37.1695C74.0607 37.1695 72.694 28.2009 63.9471 30.1401C55.2002 32.0792 41.5332 30.6249 41.5332 30.6249L39.3465 48.0774C39.3465 48.0774 36.8864 44.9262 34.153 46.8654C31.4196 48.8046 26.2261 28.2009 34.973 24.3226Z" fill="#2F2E41"/>
<path d="M33.263 90.6322C32.7597 90.4529 32.26 90.267 31.7639 90.0746C31.4252 89.9439 31.0865 89.809 30.751 89.67C25.7206 87.6014 21.0863 84.8473 17.0165 81.5076C18.4575 79.7666 19.6382 78.8809 19.6382 78.8809H29.3241L30.7761 83.211L33.263 90.6322Z" fill="#2F2E41"/>
<path d="M93.2471 64.5652L101.556 65.8667C99.3325 70.3589 96.3294 74.5145 92.6559 78.1827L93.2471 64.5652Z" fill="#2F2E41"/>
</g>
<defs>
<clipPath id="clip0">
<rect width="106" height="94" fill="white"/>
</clipPath>
</defs>
</svg>
