<svg width="260" height="182" viewBox="0 0 260 182" fill="none" xmlns="http://www.w3.org/2000/svg">
<ellipse cx="130" cy="94" rx="130" ry="88" fill="#948A80" fill-opacity="0.73"/>
<g opacity="0.5">
<path opacity="0.5" d="M130 182C173.078 182 208 141.258 208 91C208 40.7421 173.078 0 130 0C86.9218 0 52 40.7421 52 91C52 141.258 86.9218 182 130 182Z" fill="url(#paint0_linear)"/>
</g>
<path d="M130.152 179.499C172.322 179.499 206.507 139.617 206.507 90.4185C206.507 41.2205 172.322 1.33759 130.152 1.33759C87.9822 1.33759 53.7969 41.2205 53.7969 90.4185C53.7969 139.617 87.9822 179.499 130.152 179.499Z" fill="#F5F5F5"/>
<path d="M130.223 179.851C145.143 179.88 159.74 174.783 172.194 165.198C169.38 147.258 158.672 146.236 158.672 146.236H99.6247C99.6247 146.236 89.5205 147.204 86.3647 163.706C99.2043 174.243 114.526 179.883 130.223 179.851Z" fill="#323232"/>
<path d="M129.412 131.538C149.766 131.538 166.267 112.288 166.267 88.5412C166.267 64.7947 149.766 45.5444 129.412 45.5444C109.058 45.5444 92.5578 64.7947 92.5578 88.5412C92.5578 112.288 109.058 131.538 129.412 131.538Z" fill="#333333"/>
<path opacity="0.1" d="M117.518 124.354H141.132V146.395C141.132 150.048 139.889 153.551 137.676 156.134C135.462 158.717 132.46 160.169 129.33 160.17C126.198 160.17 123.195 158.719 120.981 156.136C118.766 153.552 117.522 150.049 117.522 146.395V124.354H117.518Z" fill="black"/>
<path d="M118.266 123.332H140.393C140.591 123.332 140.782 123.424 140.922 123.588C141.062 123.752 141.141 123.974 141.141 124.206V145.373C141.142 147.183 140.836 148.975 140.243 150.647C139.649 152.319 138.779 153.838 137.682 155.117C136.585 156.397 135.283 157.411 133.85 158.104C132.417 158.796 130.881 159.152 129.33 159.151C126.198 159.151 123.195 157.7 120.981 155.116C118.766 152.533 117.522 149.029 117.522 145.376V124.206C117.522 123.975 117.6 123.754 117.74 123.59C117.879 123.426 118.069 123.334 118.266 123.332Z" fill="#FDB797"/>
<path opacity="0.1" d="M117.56 134.758C125.171 138.076 133.549 138.102 141.175 134.834V131.444H117.56V134.758Z" fill="black"/>
<path d="M129.412 136.602C148.106 136.602 163.261 118.921 163.261 97.1118C163.261 75.3022 148.106 57.622 129.412 57.622C110.718 57.622 95.5638 75.3022 95.5638 97.1118C95.5638 118.921 110.718 136.602 129.412 136.602Z" fill="#FDB797"/>
<path opacity="0.1" d="M105.301 61.1917C105.301 61.1917 119.567 94.9738 159.808 75.3554L150.439 58.2166L133.831 51.2625L105.301 61.1917Z" fill="black"/>
<path d="M105.301 60.6962C105.301 60.6962 119.567 94.4783 159.808 74.8547L150.439 57.7159L133.831 50.7618L105.301 60.6962Z" fill="#333333"/>
<path d="M105.176 58.4069C106.138 54.9331 107.801 51.7792 110.024 49.2104C116.682 41.5315 127.597 39.9123 133.196 31.1564C134.537 33.5866 133.5 37.3231 131.185 38.366C136.548 38.3243 142.764 37.7768 145.797 32.6296C146.546 34.6653 146.785 36.9074 146.486 39.0953C146.186 41.2831 145.361 43.3269 144.105 44.989C148.859 45.2497 153.939 49.0044 154.238 54.5453C154.444 58.2374 152.45 61.7314 149.86 63.8487C147.27 65.9659 144.114 66.9385 141.018 67.7338C131.98 70.0622 99.2783 79.8063 105.176 58.4069Z" fill="#333333"/>
<path d="M95.5504 103.964C97.2895 103.964 98.6994 100.88 98.6994 97.0753C98.6994 93.2707 97.2895 90.1865 95.5504 90.1865C93.8112 90.1865 92.4013 93.2707 92.4013 97.0753C92.4013 100.88 93.8112 103.964 95.5504 103.964Z" fill="#FDB797"/>
<path d="M163.256 103.964C164.995 103.964 166.405 100.88 166.405 97.0753C166.405 93.2707 164.995 90.1865 163.256 90.1865C161.517 90.1865 160.107 93.2707 160.107 97.0753C160.107 100.88 161.517 103.964 163.256 103.964Z" fill="#FDB797"/>
<defs>
<linearGradient id="paint0_linear" x1="130" y1="182" x2="130" y2="0" gradientUnits="userSpaceOnUse">
<stop stop-color="#808080" stop-opacity="0.25"/>
<stop offset="0.54" stop-color="#808080" stop-opacity="0.12"/>
<stop offset="1" stop-color="#808080" stop-opacity="0.1"/>
</linearGradient>
</defs>
</svg>
