<svg width="428" height="328" viewBox="0 0 428 328" fill="none" xmlns="http://www.w3.org/2000/svg">
<g clip-path="url(#clip0)" filter="url(#filter0_d)">
<path d="M70.6967 0L42.9247 50.9466H48.5309V92.4916H20.2772L4 122.351L205.686 219.604L272.383 97.253L70.6967 0Z" fill="#F2F2F2"/>
<path d="M374.043 33.1414H64.8329V179.044H374.043V33.1414Z" fill="#3F3D56"/>
<path opacity="0.3" d="M336.443 85.5674H108.217V86.062H336.443V85.5674Z" fill="#736961"/>
<path opacity="0.3" d="M336.706 97.9319H108.48V98.4265H336.706V97.9319Z" fill="#736961"/>
<path opacity="0.3" d="M336.706 122.661H108.48V123.156H336.706V122.661Z" fill="#736961"/>
<path opacity="0.3" d="M336.706 133.542H108.48V134.037H336.706V133.542Z" fill="#736961"/>
<path opacity="0.3" d="M336.706 110.297H108.48V110.791H336.706V110.297Z" fill="#736961"/>
<path d="M301.999 320C356.019 320 399.81 316.236 399.81 311.592C399.81 306.949 356.019 303.184 301.999 303.184C247.979 303.184 204.188 306.949 204.188 311.592C204.188 316.236 247.979 320 301.999 320Z" fill="#3F3D56"/>
<path d="M114.812 133.9L114.086 133.184L148.057 102.731L178.003 122.99L202.22 97.7387L212.839 106.228L241.724 89.9272L273.81 110.21L324.167 83.2701L324.687 84.1297L273.763 111.372L241.693 91.0989L212.733 107.441L202.317 99.1141L178.154 124.31L148.151 104.013L114.812 133.9Z" fill="#736961"/>
<path d="M212.641 294.696C215.113 303.289 223.578 308.611 223.578 308.611C223.578 308.611 228.037 300.001 225.565 291.408C223.094 282.815 214.628 277.493 214.628 277.493C214.628 277.493 210.17 286.103 212.641 294.696Z" fill="#3F3D56"/>
<path d="M216.273 292.849C223.055 299.059 223.883 308.604 223.883 308.604C223.883 308.604 213.716 308.082 206.934 301.872C200.152 295.663 199.323 286.118 199.323 286.118C199.323 286.118 209.491 286.64 216.273 292.849Z" fill="#736961"/>
<path opacity="0.4" d="M406.384 43.033C416.113 43.033 424 35.615 424 26.4644C424 17.3139 416.113 9.89587 406.384 9.89587C396.654 9.89587 388.767 17.3139 388.767 26.4644C388.767 35.615 396.654 43.033 406.384 43.033Z" fill="#736961"/>
<path opacity="0.4" d="M373.78 46.0004C380.605 46.0004 386.138 40.7968 386.138 34.3777C386.138 27.9587 380.605 22.755 373.78 22.755C366.955 22.755 361.422 27.9587 361.422 34.3777C361.422 40.7968 366.955 46.0004 373.78 46.0004Z" fill="#736961"/>
<path opacity="0.4" d="M358.53 253.726C362.16 253.726 365.103 250.958 365.103 247.544C365.103 244.129 362.16 241.361 358.53 241.361C354.899 241.361 351.956 244.129 351.956 247.544C351.956 250.958 354.899 253.726 358.53 253.726Z" fill="#736961"/>
<path opacity="0.4" d="M246.52 284.39C249.279 284.39 251.516 282.286 251.516 279.691C251.516 277.097 249.279 274.993 246.52 274.993C243.761 274.993 241.524 277.097 241.524 279.691C241.524 282.286 243.761 284.39 246.52 284.39Z" fill="#736961"/>
<path opacity="0.4" d="M229.692 223.556C233.323 223.556 236.266 220.788 236.266 217.374C236.266 213.96 233.323 211.192 229.692 211.192C226.062 211.192 223.119 213.96 223.119 217.374C223.119 220.788 226.062 223.556 229.692 223.556Z" fill="#736961"/>
<path d="M323.822 92.2442C327.598 92.2442 330.659 89.3656 330.659 85.8146C330.659 82.2636 327.598 79.385 323.822 79.385C320.047 79.385 316.986 82.2636 316.986 85.8146C316.986 89.3656 320.047 92.2442 323.822 92.2442Z" fill="#736961"/>
<path d="M279.404 202.272L273.608 202.878C273.608 202.878 271.033 213.779 273.608 228.314C276.184 242.848 279.404 257.383 279.404 257.383C279.404 257.383 281.979 304.621 283.267 305.227C284.555 305.833 296.146 309.466 296.79 305.833C297.434 302.199 297.434 219.229 297.434 219.229L306.448 259.2C306.448 259.2 307.736 309.466 310.312 309.466C312.888 309.466 321.259 308.861 321.259 304.621C321.259 300.382 323.191 244.665 323.191 244.665C323.191 244.665 322.547 203.483 319.971 202.272C317.395 201.061 279.404 202.272 279.404 202.272Z" fill="#2F2E41"/>
<path d="M284.555 303.41C284.555 303.41 278.76 302.805 277.472 303.41C276.184 304.016 274.252 308.255 277.472 310.678C280.692 313.1 289.063 316.734 291.638 316.734C293.424 316.659 295.176 316.247 296.79 315.523L295.502 305.227L284.555 303.41Z" fill="#2F2E41"/>
<path d="M310.312 306.439L310.956 314.917C310.956 314.917 319.327 316.129 319.971 314.917C320.615 313.706 327.054 310.678 327.698 310.072C328.342 309.467 328.986 302.805 325.123 302.199C321.259 301.594 319.971 303.411 319.971 303.411L310.312 306.439Z" fill="#2F2E41"/>
<path d="M256.222 151.4C256.222 151.4 240.768 165.329 242.7 172.597C244.632 179.864 260.086 201.061 260.086 201.061C260.086 201.061 274.896 208.328 276.828 201.061C278.76 193.793 266.525 195.61 266.525 195.61L256.866 173.808L267.813 159.273L256.222 151.4Z" fill="#FFB8B8"/>
<path d="M325.276 130.209C325.276 130.209 339.354 121.694 339.028 115.844C338.702 109.995 330.215 91.5506 330.215 91.5506C330.215 91.5506 323.576 78.5681 320.937 83.8738C318.297 89.1795 324.406 94.8272 324.406 94.8272L328.348 112.92L317.633 122.534L325.276 130.209Z" fill="#FFB8B8"/>
<path d="M290.35 118.091C296.752 118.091 301.941 113.211 301.941 107.19C301.941 101.17 296.752 96.2889 290.35 96.2889C283.949 96.2889 278.76 101.17 278.76 107.19C278.76 113.211 283.949 118.091 290.35 118.091Z" fill="#FFB8B8"/>
<path d="M284.555 113.852L286.487 125.359L300.653 122.936C300.653 122.936 300.009 111.429 300.009 110.218C300.009 109.007 284.555 113.852 284.555 113.852Z" fill="#FFB8B8"/>
<path d="M283.911 125.359C283.911 125.359 300.009 121.725 301.941 122.936C303.873 124.147 313.532 125.359 313.532 125.359L324.479 141.105L321.259 161.09C321.259 161.09 320.615 193.188 321.903 198.638C323.191 204.089 330.274 204.695 315.464 205.906C300.653 207.117 298.078 205.3 287.775 207.723C277.472 210.145 269.101 206.511 271.677 204.089C274.252 201.667 278.76 162.907 273.609 159.273C268.457 155.64 266.525 136.865 266.525 136.865C266.525 136.865 283.911 128.387 283.911 125.359Z" fill="#D0CDE1"/>
<path d="M311.6 127.175L313.532 125.359L317.395 121.725C317.395 121.725 329.952 126.873 329.308 128.689C328.664 130.506 324.478 141.105 324.478 141.105L318.683 142.922L311.6 127.175Z" fill="#D0CDE1"/>
<path d="M274.252 138.076L266.525 136.865C266.525 136.865 260.73 142.921 258.798 145.344C256.866 147.766 253.003 153.823 253.003 153.823L266.525 162.907L276.828 152.611L274.252 138.076Z" fill="#D0CDE1"/>
<path d="M294.396 93.9831L294.277 93.1098C293.489 93.1056 292.706 93.2214 291.957 93.4527C291.881 92.9261 291.929 92.39 292.1 91.8834C291.34 92.0673 290.615 92.3636 289.953 92.7613L289.485 91.1676L283.048 94.1513C280.737 95.2224 278.301 96.3994 276.98 98.4795C275.507 100.798 275.764 103.779 276.77 106.308C277.777 108.838 279.45 111.077 280.791 113.466C281.3 114.493 281.911 115.472 282.618 116.39C285.047 119.239 289.777 119.815 293.203 118.095C294.506 117.504 295.546 116.499 296.136 115.256C296.386 114.486 296.582 113.7 296.722 112.905C297.146 111.277 297.638 107.917 299.044 106.887C299.662 106.434 300.889 107.936 301.401 107.378C302.719 105.944 302.442 103.732 301.624 102C300.839 100.261 299.921 98.5768 298.878 96.9616C298.435 96.3123 294.381 93.8784 294.396 93.9831Z" fill="#2F2E41"/>
<path d="M44.3242 56.8813H10.6687V88.5347H44.3242V56.8813Z" fill="#3F3D56"/>
</g>
<defs>
<filter id="filter0_d" x="0" y="0" width="428" height="328" filterUnits="userSpaceOnUse" color-interpolation-filters="sRGB">
<feFlood flood-opacity="0" result="BackgroundImageFix"/>
<feColorMatrix in="SourceAlpha" type="matrix" values="0 0 0 0 0 0 0 0 0 0 0 0 0 0 0 0 0 0 127 0"/>
<feOffset dy="4"/>
<feGaussianBlur stdDeviation="2"/>
<feColorMatrix type="matrix" values="0 0 0 0 0 0 0 0 0 0 0 0 0 0 0 0 0 0 0.25 0"/>
<feBlend mode="normal" in2="BackgroundImageFix" result="effect1_dropShadow"/>
<feBlend mode="normal" in="SourceGraphic" in2="effect1_dropShadow" result="shape"/>
</filter>
<clipPath id="clip0">
<rect width="420" height="320" fill="white" transform="translate(4)"/>
</clipPath>
</defs>
</svg>
