<svg width="93" height="100" viewBox="0 0 93 100" fill="none" xmlns="http://www.w3.org/2000/svg">
<g clip-path="url(#clip0)">
<path d="M87.4823 100C90.3042 100 92.5926 97.5293 92.5926 94.4812V5.51914C92.5926 2.4707 90.3042 0 87.4823 0H5.11032C2.28733 0 0 2.4707 0 5.51914V94.4812C0 97.5293 2.28733 100 5.11032 100H87.4823Z" fill="#766660"/>
<path d="M63.8871 100V61.275H75.9231L77.725 46.1832H63.8871V36.5473C63.8871 32.1777 65.0109 29.2 70.8128 29.2L78.2126 29.1965V15.6984C76.9322 15.5145 72.5398 15.1035 67.4299 15.1035C56.7607 15.1035 49.4568 22.1367 49.4568 35.0531V46.1832H37.3901V61.275H49.4568V100H63.8871Z" fill="white"/>
</g>
<defs>
<clipPath id="clip0">
<rect width="92.5926" height="100" rx="30" fill="white"/>
</clipPath>
</defs>
</svg>
