<svg width="100" height="100" viewBox="0 0 100 100" fill="none" xmlns="http://www.w3.org/2000/svg">
<rect width="100" height="100" rx="50" fill="white"/>
<path d="M50.0004 0C22.3896 0 0 22.9227 0 51.2004C0 73.8221 14.3266 93.0142 34.1933 99.7844C36.6922 100.258 37.6096 98.6737 37.6096 97.3213C37.6096 96.1004 37.5632 92.0672 37.5417 87.7889C23.6315 90.8861 20.6963 81.7479 20.6963 81.7479C18.4219 75.8298 15.1447 74.2562 15.1447 74.2562C10.6082 71.0784 15.4866 71.1437 15.4866 71.1437C20.5076 71.5049 23.1513 76.4199 23.1513 76.4199C27.6108 84.2474 34.8483 81.9844 37.7015 80.6762C38.1503 77.367 39.4461 75.1083 40.876 73.8297C29.7702 72.5351 18.0956 68.1449 18.0956 48.5263C18.0956 42.9364 20.0489 38.3689 23.2474 34.7834C22.7282 33.4938 21.0168 28.2862 23.7317 21.2337C23.7317 21.2337 27.9304 19.8577 37.4854 26.482C41.4738 25.3475 45.7512 24.7786 50.0004 24.7591C54.2496 24.7786 58.5303 25.3475 62.5262 26.482C72.0695 19.8577 76.2625 21.2337 76.2625 21.2337C78.9841 28.2862 77.2718 33.4938 76.7526 34.7834C79.9586 38.3689 81.8986 42.9364 81.8986 48.5263C81.8986 68.1915 70.2016 72.5215 59.0677 73.789C60.8611 75.3779 62.4591 78.4938 62.4591 83.2706C62.4591 90.1213 62.4012 95.6349 62.4012 97.3213C62.4012 98.6838 63.3012 100.28 65.8356 99.7776C85.6916 92.9998 100 73.8145 100 51.2004C100 22.9227 77.6137 0 50.0004 0ZM18.7268 72.9361C18.6167 73.1904 18.2258 73.2667 17.8698 73.0921C17.5072 72.9251 17.3035 72.5783 17.421 72.3231C17.5287 72.0611 17.9203 71.9882 18.2822 72.1637C18.6456 72.3307 18.8526 72.6809 18.7268 72.9361ZM21.1862 75.1833C20.9478 75.4097 20.4816 75.3045 20.1653 74.9467C19.8383 74.5898 19.777 74.1125 20.0188 73.8827C20.2647 73.6563 20.7168 73.7623 21.0447 74.1192C21.3717 74.4804 21.4355 74.9544 21.1862 75.1833ZM22.8735 78.0585C22.5672 78.2764 22.0662 78.0721 21.7566 77.6168C21.4502 77.1615 21.4502 76.6155 21.7632 76.3967C22.0737 76.178 22.5672 76.3747 22.881 76.8266C23.1865 77.2895 23.1865 77.8356 22.8735 78.0585ZM25.7271 81.3885C25.453 81.6979 24.8693 81.6148 24.4421 81.1926C24.0049 80.7797 23.8832 80.1938 24.1581 79.8844C24.4354 79.5741 25.0225 79.6614 25.453 80.0802C25.8869 80.4923 26.0194 81.0824 25.7271 81.3885ZM29.415 82.5126C29.2942 82.9137 28.732 83.0959 28.1656 82.9255C27.6001 82.75 27.23 82.2803 27.3443 81.875C27.4618 81.4715 28.0265 81.2815 28.597 81.4638C29.1617 81.6385 29.5326 82.1048 29.415 82.5126ZM33.6121 82.9895C33.6262 83.4117 33.1459 83.7619 32.5514 83.7695C31.9536 83.7831 31.4701 83.4414 31.4635 83.0259C31.4635 82.5994 31.9329 82.2527 32.5307 82.2425C33.1252 82.2306 33.6121 82.5698 33.6121 82.9895ZM37.7352 82.8276C37.8064 83.2397 37.3933 83.6628 36.8029 83.7755C36.2225 83.884 35.6851 83.6297 35.6114 83.221C35.5394 82.7988 35.96 82.3757 36.5396 82.2663C37.1308 82.1612 37.6599 82.4088 37.7352 82.8276Z" fill="#766660"/>
</svg>
