<svg width="420" height="300" viewBox="0 0 420 300" fill="none" xmlns="http://www.w3.org/2000/svg">
<g clip-path="url(#clip0)">
<path d="M105.778 161.287C110.392 161.287 114.132 157.454 114.132 152.727C114.132 148 110.392 144.167 105.778 144.167C101.164 144.167 97.4237 148 97.4237 152.727C97.4237 157.454 101.164 161.287 105.778 161.287Z" fill="#F2F2F2"/>
<path d="M77.1878 256.608C80.0472 256.608 82.3652 254.233 82.3652 251.303C82.3652 248.374 80.0472 245.999 77.1878 245.999C74.3283 245.999 72.0103 248.374 72.0103 251.303C72.0103 254.233 74.3283 256.608 77.1878 256.608Z" fill="#F2F2F2"/>
<path d="M235.98 9.99719H172.447V10.9272H235.98V9.99719Z" fill="#F2F2F2"/>
<path d="M190.599 1.62744H189.691V10.2296H190.599V1.62744Z" fill="#F2F2F2"/>
<path d="M218.281 1.62744H217.374V10.2296H218.281V1.62744Z" fill="#F2F2F2"/>
<path d="M338.541 235.049H275.008V235.979H338.541V235.049Z" fill="#F2F2F2"/>
<path d="M293.16 226.679H292.252V235.282H293.16V226.679Z" fill="#F2F2F2"/>
<path d="M320.842 226.679H319.935V235.282H320.842V226.679Z" fill="#F2F2F2"/>
<path d="M341.718 93.2291H278.184V94.1591H341.718V93.2291Z" fill="#F2F2F2"/>
<path d="M296.337 84.8595H295.429V93.4617H296.337V84.8595Z" fill="#F2F2F2"/>
<path d="M324.019 84.8595H323.112V93.4617H324.019V84.8595Z" fill="#F2F2F2"/>
<path d="M341.718 59.7504H278.184V60.6803H341.718V59.7504Z" fill="#F2F2F2"/>
<path d="M296.337 51.3806H295.429V59.9828H296.337V51.3806Z" fill="#F2F2F2"/>
<path d="M324.019 51.3806H323.112V59.9828H324.019V51.3806Z" fill="#F2F2F2"/>
<path d="M202.398 64.4001H138.865V65.3301H202.398V64.4001Z" fill="#F2F2F2"/>
<path d="M157.017 56.0305H156.109V64.6327H157.017V56.0305Z" fill="#F2F2F2"/>
<path d="M184.699 56.0305H183.792V64.6327H184.699V56.0305Z" fill="#F2F2F2"/>
<path d="M156.109 42.546H92.5759V43.476H156.109V42.546Z" fill="#F2F2F2"/>
<path d="M110.728 34.1763H109.821V42.7785H110.728V34.1763Z" fill="#F2F2F2"/>
<path d="M138.411 34.1763H137.503V42.7785H138.411V34.1763Z" fill="#F2F2F2"/>
<path d="M127.519 128.568H63.9859V129.498H127.519V128.568Z" fill="#F2F2F2"/>
<path d="M82.1383 120.198H81.2307V128.8H82.1383V120.198Z" fill="#F2F2F2"/>
<path d="M109.821 120.198H108.913V128.8H109.821V120.198Z" fill="#F2F2F2"/>
<path d="M95.7526 223.424H32.2192V224.354H95.7526V223.424Z" fill="#F2F2F2"/>
<path d="M50.3716 215.055H49.464V223.657H50.3716V215.055Z" fill="#F2F2F2"/>
<path d="M78.054 215.055H77.1464V223.657H78.054V215.055Z" fill="#F2F2F2"/>
<path d="M396.175 184.366H332.642V185.296H396.175V184.366Z" fill="#F2F2F2"/>
<path d="M350.794 175.996H349.886V184.598H350.794V175.996Z" fill="#F2F2F2"/>
<path d="M378.476 175.996H377.569V184.598H378.476V175.996Z" fill="#F2F2F2"/>
<path d="M377.569 124.848H314.035V125.778H377.569V124.848Z" fill="#F2F2F2"/>
<path d="M360.324 125.546H359.416V134.148H360.324V125.546Z" fill="#F2F2F2"/>
<path d="M332.642 125.546H331.734V134.148H332.642V125.546Z" fill="#F2F2F2"/>
<path d="M69.8854 55.1006H6.35197V56.0305H69.8854V55.1006Z" fill="#F2F2F2"/>
<path d="M52.6406 55.798H51.733V64.4002H52.6406V55.798Z" fill="#F2F2F2"/>
<path d="M24.9582 55.798H24.0506V64.4002H24.9582V55.798Z" fill="#F2F2F2"/>
<path d="M73.9697 176.926H10.4363V177.856H73.9697V176.926Z" fill="#F2F2F2"/>
<path d="M56.7249 177.624H55.8173V186.226H56.7249V177.624Z" fill="#F2F2F2"/>
<path d="M29.0425 177.624H28.1349V186.226H29.0425V177.624Z" fill="#F2F2F2"/>
<path d="M274.1 24.8766H210.567V25.8066H274.1V24.8766Z" fill="#F2F2F2"/>
<path d="M256.855 25.5741H255.948V34.1763H256.855V25.5741Z" fill="#F2F2F2"/>
<path d="M229.173 25.5741H228.265V34.1763H229.173V25.5741Z" fill="#F2F2F2"/>
<path d="M95.7526 89.5093H32.2192V90.4393H95.7526V89.5093Z" fill="#F2F2F2"/>
<path d="M50.3716 81.1395H49.464V89.7417H50.3716V81.1395Z" fill="#F2F2F2"/>
<path d="M78.054 81.1395H77.1464V89.7417H78.054V81.1395Z" fill="#F2F2F2"/>
<path d="M105.963 80.4421V299.449H303.825V80.4421H105.963ZM204.894 96.2516C203.548 96.2516 202.232 95.8425 201.112 95.0761C199.993 94.3097 199.12 93.2204 198.605 91.946C198.09 90.6715 197.955 89.2691 198.218 87.9161C198.48 86.5632 199.129 85.3204 200.081 84.3449C201.033 83.3695 202.245 82.7052 203.566 82.4361C204.886 82.167 206.255 82.3051 207.499 82.833C208.743 83.3609 209.806 84.2549 210.554 85.4019C211.302 86.5489 211.701 87.8973 211.701 89.2768C211.701 91.1266 210.984 92.9007 209.707 94.2087C208.431 95.5168 206.699 96.2516 204.894 96.2516Z" fill="#3F3D56"/>
<path d="M16.9067 280.756C20.0443 292.64 30.7914 300 30.7914 300C30.7914 300 36.4514 288.092 33.3138 276.208C30.1761 264.324 19.429 256.964 19.429 256.964C19.429 256.964 13.769 268.871 16.9067 280.756Z" fill="#3F3D56"/>
<path d="M21.5172 278.202C30.1269 286.789 31.1786 299.99 31.1786 299.99C31.1786 299.99 18.2711 299.268 9.66133 290.681C1.05161 282.093 0 268.892 0 268.892C0 268.892 12.9075 269.614 21.5172 278.202Z" fill="#412416" fill-opacity="0.32"/>
<path d="M420 298.984H7.48651V299.914H420V298.984Z" fill="#3F3D56"/>
<path d="M87.1302 270.312C87.1277 268.252 86.5187 266.24 85.3827 264.539C84.2468 262.839 82.6367 261.529 80.7627 260.78C82.9333 259.916 84.7407 258.302 85.8723 256.216C87.0039 254.131 87.3884 251.706 86.9593 249.36C86.5302 247.015 85.3144 244.898 83.5225 243.374C81.7305 241.85 79.4751 241.016 77.1464 241.016C74.8177 241.016 72.5622 241.85 70.7703 243.374C68.9783 244.898 67.7626 247.015 67.3335 249.36C66.9044 251.706 67.2889 254.131 68.4205 256.216C69.552 258.302 71.3595 259.916 73.53 260.78C71.6547 261.526 70.0432 262.836 68.9069 264.537C67.7706 266.238 67.1626 268.251 67.1626 270.312C67.1626 272.374 67.7706 274.387 68.9069 276.088C70.0432 277.789 71.6547 279.099 73.53 279.845C71.3595 280.709 69.552 282.323 68.4205 284.409C67.2889 286.494 66.9044 288.919 67.3335 291.265C67.7626 293.61 68.9783 295.727 70.7703 297.251C72.5622 298.775 74.8177 299.609 77.1464 299.609C79.4751 299.609 81.7305 298.775 83.5225 297.251C85.3144 295.727 86.5302 293.61 86.9593 291.265C87.3884 288.919 87.0039 286.494 85.8723 284.409C84.7407 282.323 82.9333 280.709 80.7627 279.845C82.6367 279.096 84.2468 277.786 85.3827 276.086C86.5187 274.385 87.1277 272.373 87.1302 270.312ZM68.0702 251.248C68.0687 249.499 68.549 247.784 69.4558 246.302C70.3627 244.819 71.6593 243.629 73.1967 242.867C74.734 242.106 76.4499 241.805 78.147 241.997C79.8441 242.19 81.4538 242.87 82.7909 243.958C84.1281 245.046 85.1386 246.498 85.7063 248.149C86.274 249.799 86.3759 251.579 86.0003 253.286C85.6247 254.993 84.7868 256.556 83.5829 257.797C82.379 259.038 80.8579 259.905 79.1944 260.3C77.8437 260.01 76.4491 260.01 75.0984 260.3C73.1022 259.825 71.3216 258.672 70.0457 257.028C68.7698 255.385 68.0736 253.348 68.0702 251.248ZM86.2226 289.377C86.224 291.126 85.7437 292.841 84.8369 294.323C83.9301 295.806 82.6335 296.996 81.0961 297.758C79.5587 298.519 77.8429 298.821 76.1458 298.628C74.4486 298.435 72.839 297.755 71.5018 296.667C70.1647 295.579 69.1542 294.127 68.5865 292.476C68.0188 290.826 67.9169 289.046 68.2925 287.339C68.6681 285.632 69.506 284.069 70.7099 282.828C71.9138 281.587 73.4349 280.72 75.0984 280.325C76.4491 280.615 77.8437 280.615 79.1944 280.325C81.1906 280.8 82.9712 281.953 84.2471 283.597C85.523 285.24 86.2192 287.277 86.2226 289.377ZM79.1944 279.364C77.8437 279.075 76.4491 279.075 75.0984 279.364C73.1006 278.892 71.318 277.74 70.0415 276.096C68.7651 274.452 68.0702 272.413 68.0702 270.312C68.0702 268.212 68.7651 266.173 70.0415 264.529C71.318 262.885 73.1006 261.733 75.0984 261.261C76.4491 261.55 77.8437 261.55 79.1944 261.261C81.1922 261.733 82.9748 262.885 84.2512 264.529C85.5277 266.173 86.2226 268.212 86.2226 270.312C86.2226 272.413 85.5277 274.452 84.2512 276.096C82.9748 277.74 81.1922 278.892 79.1944 279.364Z" fill="#3F3D56"/>
<path d="M231.896 126.243H127.973C127.131 126.243 126.323 125.9 125.727 125.29C125.131 124.679 124.796 123.851 124.796 122.988C124.796 122.125 125.131 121.297 125.727 120.686C126.323 120.076 127.131 119.733 127.973 119.733H231.896C232.738 119.733 233.546 120.076 234.142 120.686C234.738 121.297 235.072 122.125 235.072 122.988C235.072 123.851 234.738 124.679 234.142 125.29C233.546 125.9 232.738 126.243 231.896 126.243Z" fill="#F2F2F2"/>
<path d="M231.896 159.722H127.973C127.131 159.722 126.323 159.379 125.727 158.769C125.131 158.158 124.796 157.33 124.796 156.467C124.796 155.604 125.131 154.776 125.727 154.165C126.323 153.555 127.131 153.212 127.973 153.212H231.896C232.738 153.212 233.546 153.555 234.142 154.165C234.738 154.776 235.072 155.604 235.072 156.467C235.072 157.33 234.738 158.158 234.142 158.769C233.546 159.379 232.738 159.722 231.896 159.722Z" fill="#F2F2F2"/>
<path d="M231.896 193.201H127.973C127.131 193.201 126.323 192.858 125.727 192.247C125.131 191.637 124.796 190.809 124.796 189.946C124.796 189.082 125.131 188.255 125.727 187.644C126.323 187.034 127.131 186.691 127.973 186.691H231.896C232.738 186.691 233.546 187.034 234.142 187.644C234.738 188.255 235.072 189.082 235.072 189.946C235.072 190.809 234.738 191.637 234.142 192.247C233.546 192.858 232.738 193.201 231.896 193.201Z" fill="#F2F2F2"/>
<path d="M231.896 226.679H127.973C127.131 226.679 126.323 226.336 125.727 225.726C125.131 225.116 124.796 224.288 124.796 223.424C124.796 222.561 125.131 221.733 125.727 221.123C126.323 220.513 127.131 220.17 127.973 220.17H231.896C232.738 220.17 233.546 220.513 234.142 221.123C234.738 221.733 235.072 222.561 235.072 223.424C235.072 224.288 234.738 225.116 234.142 225.726C233.546 226.336 232.738 226.679 231.896 226.679Z" fill="#F2F2F2"/>
<path d="M231.896 260.158H127.973C127.131 260.158 126.323 259.815 125.727 259.205C125.131 258.594 124.796 257.767 124.796 256.903C124.796 256.04 125.131 255.212 125.727 254.602C126.323 253.991 127.131 253.648 127.973 253.648H231.896C232.738 253.648 233.546 253.991 234.142 254.602C234.738 255.212 235.072 256.04 235.072 256.903C235.072 257.767 234.738 258.594 234.142 259.205C233.546 259.815 232.738 260.158 231.896 260.158Z" fill="#F2F2F2"/>
<path d="M213.743 126.243H127.519C126.677 126.243 125.869 125.9 125.273 125.29C124.677 124.679 124.343 123.851 124.343 122.988C124.343 122.125 124.677 121.297 125.273 120.686C125.869 120.076 126.677 119.733 127.519 119.733H213.743C214.586 119.733 215.394 120.076 215.99 120.686C216.585 121.297 216.92 122.125 216.92 122.988C216.92 123.851 216.585 124.679 215.99 125.29C215.394 125.9 214.586 126.243 213.743 126.243Z" fill="#412416" fill-opacity="0.32"/>
<path d="M186.968 159.722H127.519C126.677 159.722 125.869 159.379 125.273 158.769C124.677 158.158 124.343 157.33 124.343 156.467C124.343 155.604 124.677 154.776 125.273 154.165C125.869 153.555 126.677 153.212 127.519 153.212H186.968C187.811 153.212 188.619 153.555 189.215 154.165C189.81 154.776 190.145 155.604 190.145 156.467C190.145 157.33 189.81 158.158 189.215 158.769C188.619 159.379 187.811 159.722 186.968 159.722Z" fill="#412416" fill-opacity="0.32"/>
<path d="M154.294 193.201H127.519C126.677 193.201 125.869 192.858 125.273 192.247C124.677 191.637 124.343 190.809 124.343 189.946C124.343 189.082 124.677 188.255 125.273 187.644C125.869 187.034 126.677 186.691 127.519 186.691H154.294C155.137 186.691 155.945 187.034 156.54 187.644C157.136 188.255 157.471 189.082 157.471 189.946C157.471 190.809 157.136 191.637 156.54 192.247C155.945 192.858 155.137 193.201 154.294 193.201Z" fill="#412416" fill-opacity="0.32"/>
<path d="M221.912 226.679H127.519C126.677 226.679 125.869 226.336 125.273 225.726C124.677 225.116 124.343 224.288 124.343 223.424C124.343 222.561 124.677 221.733 125.273 221.123C125.869 220.513 126.677 220.17 127.519 220.17H221.912C222.754 220.17 223.562 220.513 224.158 221.123C224.754 221.733 225.089 222.561 225.089 223.424C225.089 224.288 224.754 225.116 224.158 225.726C223.562 226.336 222.754 226.679 221.912 226.679Z" fill="#412416" fill-opacity="0.32"/>
<path d="M201.037 260.158H127.519C126.677 260.158 125.869 259.815 125.273 259.205C124.677 258.594 124.343 257.767 124.343 256.903C124.343 256.04 124.677 255.212 125.273 254.602C125.869 253.991 126.677 253.648 127.519 253.648H201.037C201.879 253.648 202.687 253.991 203.283 254.602C203.879 255.212 204.213 256.04 204.213 256.903C204.213 257.767 203.879 258.594 203.283 259.205C202.687 259.815 201.879 260.158 201.037 260.158Z" fill="#412416" fill-opacity="0.32"/>
<path d="M275.008 119.733H274.1V126.243H275.008V119.733Z" fill="#412416" fill-opacity="0.32"/>
<path d="M281.815 126.708C281.097 126.708 280.395 126.49 279.798 126.081C279.201 125.672 278.735 125.091 278.461 124.412C278.186 123.732 278.114 122.984 278.254 122.262C278.394 121.541 278.74 120.878 279.248 120.358C279.755 119.837 280.402 119.483 281.107 119.34C281.811 119.196 282.541 119.27 283.204 119.551C283.867 119.833 284.434 120.31 284.833 120.921C285.232 121.533 285.445 122.252 285.445 122.988C285.444 123.974 285.061 124.92 284.381 125.617C283.7 126.315 282.777 126.707 281.815 126.708ZM281.815 120.198C281.276 120.198 280.75 120.362 280.302 120.668C279.854 120.975 279.505 121.411 279.299 121.92C279.093 122.43 279.039 122.991 279.144 123.532C279.249 124.074 279.509 124.571 279.889 124.961C280.27 125.351 280.755 125.617 281.284 125.724C281.812 125.832 282.359 125.777 282.857 125.566C283.354 125.354 283.78 124.997 284.079 124.538C284.378 124.079 284.538 123.54 284.538 122.988C284.537 122.248 284.25 121.539 283.739 121.016C283.229 120.493 282.537 120.199 281.815 120.198Z" fill="#412416" fill-opacity="0.32"/>
<path d="M275.008 153.212H274.1V159.722H275.008V153.212Z" fill="#412416" fill-opacity="0.32"/>
<path d="M281.815 160.187C281.097 160.187 280.395 159.969 279.798 159.56C279.201 159.151 278.735 158.57 278.461 157.89C278.186 157.211 278.114 156.463 278.254 155.741C278.394 155.02 278.74 154.357 279.248 153.837C279.755 153.316 280.402 152.962 281.107 152.819C281.811 152.675 282.541 152.749 283.204 153.03C283.867 153.312 284.434 153.789 284.833 154.4C285.232 155.012 285.445 155.731 285.445 156.467C285.444 157.453 285.061 158.399 284.381 159.096C283.7 159.793 282.777 160.186 281.815 160.187ZM281.815 153.677C281.276 153.677 280.75 153.841 280.302 154.147C279.854 154.454 279.505 154.89 279.299 155.399C279.093 155.909 279.039 156.47 279.144 157.011C279.249 157.552 279.509 158.05 279.889 158.44C280.27 158.83 280.755 159.096 281.284 159.203C281.812 159.311 282.359 159.256 282.857 159.044C283.354 158.833 283.78 158.476 284.079 158.017C284.378 157.558 284.538 157.019 284.538 156.467C284.537 155.727 284.25 155.018 283.739 154.495C283.229 153.972 282.537 153.678 281.815 153.677Z" fill="#412416" fill-opacity="0.32"/>
<path d="M275.008 186.691H274.1V193.201H275.008V186.691Z" fill="#412416" fill-opacity="0.32"/>
<path d="M281.815 193.666C281.097 193.666 280.395 193.447 279.798 193.039C279.201 192.63 278.735 192.049 278.461 191.369C278.186 190.689 278.114 189.942 278.254 189.22C278.394 188.498 278.74 187.836 279.248 187.315C279.755 186.795 280.402 186.441 281.107 186.297C281.811 186.154 282.541 186.227 283.204 186.509C283.867 186.791 284.434 187.267 284.833 187.879C285.232 188.491 285.445 189.21 285.445 189.946C285.444 190.932 285.061 191.877 284.381 192.575C283.7 193.272 282.777 193.664 281.815 193.666ZM281.815 187.156C281.276 187.156 280.75 187.319 280.302 187.626C279.854 187.933 279.505 188.368 279.299 188.878C279.093 189.388 279.039 189.949 279.144 190.49C279.249 191.031 279.509 191.528 279.889 191.918C280.27 192.309 280.755 192.574 281.284 192.682C281.812 192.79 282.359 192.734 282.857 192.523C283.354 192.312 283.78 191.954 284.079 191.496C284.378 191.037 284.538 190.497 284.538 189.946C284.537 189.206 284.25 188.497 283.739 187.974C283.229 187.451 282.537 187.157 281.815 187.156Z" fill="#412416" fill-opacity="0.32"/>
<path d="M275.008 220.17H274.1V226.679H275.008V220.17Z" fill="#412416" fill-opacity="0.32"/>
<path d="M281.815 227.144C281.097 227.144 280.395 226.926 279.798 226.517C279.201 226.109 278.735 225.528 278.461 224.848C278.186 224.168 278.114 223.42 278.254 222.699C278.394 221.977 278.74 221.314 279.248 220.794C279.755 220.274 280.402 219.92 281.107 219.776C281.811 219.633 282.541 219.706 283.204 219.988C283.867 220.269 284.434 220.746 284.833 221.358C285.232 221.97 285.445 222.689 285.445 223.424C285.444 224.411 285.061 225.356 284.381 226.054C283.7 226.751 282.777 227.143 281.815 227.144ZM281.815 220.635C281.276 220.635 280.75 220.798 280.302 221.105C279.854 221.411 279.505 221.847 279.299 222.357C279.093 222.867 279.039 223.428 279.144 223.969C279.249 224.51 279.509 225.007 279.889 225.397C280.27 225.787 280.755 226.053 281.284 226.161C281.812 226.268 282.359 226.213 282.857 226.002C283.354 225.791 283.78 225.433 284.079 224.974C284.378 224.516 284.538 223.976 284.538 223.424C284.537 222.685 284.25 221.976 283.739 221.453C283.229 220.93 282.537 220.635 281.815 220.635Z" fill="#412416" fill-opacity="0.32"/>
<path d="M275.008 253.648H274.1V260.158H275.008V253.648Z" fill="#412416" fill-opacity="0.32"/>
<path d="M281.815 260.623C281.097 260.623 280.395 260.405 279.798 259.996C279.201 259.588 278.735 259.007 278.461 258.327C278.186 257.647 278.114 256.899 278.254 256.178C278.394 255.456 278.74 254.793 279.248 254.273C279.755 253.753 280.402 253.398 281.107 253.255C281.811 253.111 282.541 253.185 283.204 253.467C283.867 253.748 284.434 254.225 284.833 254.837C285.232 255.448 285.445 256.168 285.445 256.903C285.444 257.89 285.061 258.835 284.381 259.532C283.7 260.23 282.777 260.622 281.815 260.623ZM281.815 254.113C281.276 254.113 280.75 254.277 280.302 254.584C279.854 254.89 279.505 255.326 279.299 255.836C279.093 256.345 279.039 256.906 279.144 257.448C279.249 257.989 279.509 258.486 279.889 258.876C280.27 259.266 280.755 259.532 281.284 259.64C281.812 259.747 282.359 259.692 282.857 259.481C283.354 259.27 283.78 258.912 284.079 258.453C284.378 257.995 284.538 257.455 284.538 256.903C284.537 256.164 284.25 255.454 283.739 254.931C283.229 254.408 282.537 254.114 281.815 254.113Z" fill="#412416" fill-opacity="0.32"/>
<path d="M281.815 124.848C282.817 124.848 283.63 124.015 283.63 122.988C283.63 121.961 282.817 121.128 281.815 121.128C280.812 121.128 280 121.961 280 122.988C280 124.015 280.812 124.848 281.815 124.848Z" fill="#412416" fill-opacity="0.32"/>
<path d="M281.815 225.284C282.817 225.284 283.63 224.452 283.63 223.424C283.63 222.397 282.817 221.565 281.815 221.565C280.812 221.565 280 222.397 280 223.424C280 224.452 280.812 225.284 281.815 225.284Z" fill="#412416" fill-opacity="0.32"/>
<path d="M281.815 258.763C282.817 258.763 283.63 257.931 283.63 256.903C283.63 255.876 282.817 255.043 281.815 255.043C280.812 255.043 280 255.876 280 256.903C280 257.931 280.812 258.763 281.815 258.763Z" fill="#412416" fill-opacity="0.32"/>
<path d="M204.894 92.5316C206.648 92.5316 208.071 91.0744 208.071 89.2767C208.071 87.4791 206.648 86.0219 204.894 86.0219C203.14 86.0219 201.717 87.4791 201.717 89.2767C201.717 91.0744 203.14 92.5316 204.894 92.5316Z" fill="#3F3D56"/>
<path d="M204.894 6.50977C206.648 6.50977 208.071 5.05251 208.071 3.25488C208.071 1.45726 206.648 0 204.894 0C203.14 0 201.717 1.45726 201.717 3.25488C201.717 5.05251 203.14 6.50977 204.894 6.50977Z" fill="#3F3D56"/>
<path d="M205.348 3.25488H204.44V89.2768H205.348V3.25488Z" fill="#3F3D56"/>
<path d="M388.74 178.776V190.296C388.74 190.296 391.447 208.856 391.447 225.069C391.447 241.282 387.074 279.042 387.074 279.042C387.074 279.042 378.33 282.242 377.705 277.335C377.08 272.429 375.415 246.402 375.415 242.562C375.415 238.722 368.128 209.496 368.128 209.496L363.547 241.922C363.547 241.922 365.005 280.322 363.547 281.389C362.09 282.455 355.011 284.375 354.178 282.455C353.345 280.535 348.973 239.362 348.973 239.362C348.973 239.362 345.433 185.603 347.515 182.403C349.597 179.203 351.471 176.643 351.471 176.643C351.471 176.643 381.245 169.176 388.74 178.776Z" fill="#2F2E41"/>
<path d="M386.033 277.762L386.555 281.24C386.73 282.426 386.844 283.621 386.897 284.82C386.978 286.567 387.262 289.258 388.233 289.685C389.691 290.325 399.15 298.499 392.488 298.926C385.825 299.352 382.492 300.089 380.519 298.519C378.185 296.663 380.828 297.504 379.787 297.504C378.746 297.504 377.497 297.504 377.08 295.797C376.664 294.09 377.705 291.104 377.705 291.104V277.762H386.033Z" fill="#2F2E41"/>
<path d="M354.946 277.595L354.423 281.072C354.249 282.259 354.135 283.454 354.082 284.652C354.001 286.399 353.717 289.091 352.746 289.517C351.288 290.157 341.829 298.332 348.491 298.758C355.154 299.185 358.487 299.922 360.46 298.352C362.793 296.496 360.151 297.336 361.192 297.336C362.233 297.336 363.482 297.336 363.898 295.63C364.315 293.923 363.274 290.936 363.274 290.936V277.595H354.946Z" fill="#2F2E41"/>
<path d="M360.84 86.1904C360.84 86.1904 364.38 95.1503 366.878 96.6437C369.377 98.137 368.128 104.964 368.128 104.964L361.881 113.924H356.885L350.847 103.257C350.847 103.257 350.43 96.217 349.181 94.5104C347.932 92.8037 360.84 86.1904 360.84 86.1904Z" fill="#FFB9B9"/>
<path opacity="0.1" d="M360.84 86.1904C360.84 86.1904 364.38 95.1503 366.878 96.6437C369.377 98.137 368.128 104.964 368.128 104.964L361.881 113.924H356.885L350.847 103.257C350.847 103.257 350.43 96.217 349.181 94.5104C347.932 92.8037 360.84 86.1904 360.84 86.1904Z" fill="black"/>
<path d="M366.046 104.537L375.415 106.67L382.286 177.496C382.286 177.496 378.538 178.136 374.79 183.256C371.042 188.376 366.462 187.523 364.172 186.243C361.881 184.963 352.72 181.336 352.512 179.843C352.304 178.35 352.929 152.11 352.929 152.11L347.099 111.15L350.014 106.67H355.219L359.383 110.297L366.046 104.537Z" fill="#412416" fill-opacity="0.32"/>
<path d="M351.888 97.2837C357.867 97.2837 362.714 92.3171 362.714 86.1904C362.714 80.0638 357.867 75.0972 351.888 75.0972C345.908 75.0972 341.061 80.0638 341.061 86.1904C341.061 92.3171 345.908 97.2837 351.888 97.2837Z" fill="#FFB9B9"/>
<path d="M367.503 100.91C367.503 100.91 387.907 103.044 389.781 107.524C391.655 112.004 388.532 131.843 388.532 131.843C388.532 131.843 396.027 149.123 395.819 153.177C395.611 157.23 402.898 184.963 394.986 181.763C387.074 178.563 389.573 170.243 385.617 176.216C381.661 182.19 379.995 181.336 379.995 181.336C379.995 181.336 376.039 187.95 374.79 187.31C373.541 186.67 372.708 181.763 375.415 179.416C378.122 177.07 377.705 173.016 372.5 165.336C367.295 157.657 361.882 117.337 365.005 111.15C368.128 104.964 367.503 100.91 367.503 100.91Z" fill="#575A89"/>
<path d="M388.74 182.83L385.2 186.243L380.828 183.256L382.702 178.776L388.74 182.83Z" fill="#FFB9B9"/>
<path d="M352.512 104.537C352.512 104.537 336.689 110.51 336.689 116.91C336.689 123.31 346.266 151.256 346.266 151.256C346.266 151.256 346.266 158.51 345.85 160.216C345.433 161.923 338.882 176.808 344.6 178.136C348.17 178.965 351.102 181.143 351.367 184.216C351.682 187.866 348.955 192.472 349.181 193.283C349.597 194.776 352.096 196.909 351.888 195.843C351.679 194.776 353.553 179.416 356.468 172.59C359.383 165.763 355.219 119.897 354.386 113.923C353.984 110.752 353.358 107.615 352.512 104.537Z" fill="#575A89"/>
<path d="M344.184 182.403L347.932 191.576L350.743 185.71L347.515 178.349L344.184 182.403Z" fill="#FFB9B9"/>
<path d="M364.085 93.0632C364.085 93.0632 367.503 94.5104 369.585 94.5104C371.667 94.5104 380.204 98.9904 377.289 101.764C374.374 104.537 370.001 105.177 367.919 109.23C365.837 113.284 364.796 113.924 364.796 113.924L361.09 108.822C361.09 108.822 366.254 102.83 366.046 100.91C365.837 98.9904 364.085 93.0632 364.085 93.0632Z" fill="#412416" fill-opacity="0.32"/>
<path d="M350.284 98.1924C350.284 98.1924 347.724 99.2036 347.099 100.91C346.474 102.617 342.518 105.817 344.184 106.67C345.85 107.524 353.137 110.937 354.594 111.577C356.052 112.217 358.768 109.761 358.768 109.761C358.768 109.761 355.115 107.63 355.115 106.137C355.115 104.644 350.284 98.1924 350.284 98.1924Z" fill="#412416" fill-opacity="0.32"/>
<path d="M341.686 113.924L336.689 115.204C336.689 115.204 329.818 146.777 331.9 154.67C333.982 162.563 343.768 186.243 343.768 186.243L350.014 178.776C350.014 178.776 347.289 161.797 345.737 160.687C344.184 159.577 345.225 157.23 345.225 156.59C345.225 155.95 345.85 156.377 344.392 154.883C342.935 153.39 349.806 145.07 347.932 142.723C346.058 140.377 341.686 113.924 341.686 113.924Z" fill="#575A89"/>
<path opacity="0.1" d="M390.926 119.79L387.907 108.164C387.907 108.164 396.027 114.137 397.693 122.883C399.358 131.63 405.813 149.123 401.649 156.803C397.485 164.483 390.197 186.67 387.699 186.243C385.201 185.816 379.163 180.483 378.954 179.63C378.746 178.776 389.781 159.15 388.115 157.656C386.45 156.163 386.866 152.323 388.115 151.47C389.365 150.617 390.822 146.563 389.781 146.777C388.74 146.99 385.617 144.857 386.242 142.51C386.866 140.163 383.118 124.377 383.118 124.377L390.926 119.79Z" fill="black"/>
<path d="M386.866 106.67L389.781 107.524C389.781 107.524 397.901 113.497 399.567 122.243C401.232 130.99 407.687 148.483 403.523 156.163C399.358 163.843 392.071 186.03 389.573 185.603C387.074 185.176 381.036 179.843 380.828 178.99C380.62 178.136 391.655 158.51 389.989 157.017C388.324 155.523 388.74 151.683 389.989 150.83C391.238 149.977 392.696 145.923 391.655 146.137C390.614 146.35 387.491 144.217 388.115 141.87C388.74 139.523 384.992 123.737 384.992 123.737L386.866 106.67Z" fill="#575A89"/>
<path d="M360.289 76.1771L362.32 75.4205C362.32 75.4205 358.074 71.0701 352.167 71.4484L353.828 69.7461C353.828 69.7461 349.767 68.2329 346.075 72.205C344.134 74.293 341.889 76.7474 340.489 79.5122H338.314L339.222 81.3721L336.045 83.2321L339.306 82.898C338.997 84.5037 339.103 86.1643 339.614 87.715L340.352 89.7956C340.352 89.7956 343.306 83.7429 343.306 82.9863V84.8778C343.306 84.8778 345.337 83.1755 345.337 82.0406L346.444 83.3646L346.998 81.284L353.828 83.3646L352.721 81.6623L356.967 82.2298L355.305 80.1492C355.305 80.1492 360.105 82.608 360.289 84.6887C360.474 86.7693 362.874 89.4173 362.874 89.4173L363.981 87.5259C363.981 87.5259 365.643 79.0143 360.289 76.1771Z" fill="#2F2E41"/>
<path d="M359.87 87.4168C360.747 87.4168 361.458 86.2718 361.458 84.8594C361.458 83.447 360.747 82.302 359.87 82.302C358.993 82.302 358.282 83.447 358.282 84.8594C358.282 86.2718 358.993 87.4168 359.87 87.4168Z" fill="#FFB9B9"/>
</g>
<defs>
<clipPath id="clip0">
<rect width="420" height="300" fill="white"/>
</clipPath>
</defs>
</svg>
