<svg width="420" height="300" viewBox="0 0 420 300" fill="none" xmlns="http://www.w3.org/2000/svg">
<g clip-path="url(#clip0)">
<path opacity="0.1" d="M420 192.557C420.005 200.706 419.159 208.818 417.485 216.661C415.868 224.222 413.488 231.46 410.41 238.18C410.41 262.527 397.994 283.569 379.971 293.58C372.44 297.721 364.362 299.836 356.207 299.801H79.7302C64.9531 299.801 51.2591 294.523 40.0285 285.533C36.8144 282.971 33.7654 280.064 30.9126 276.839C18.4301 262.638 10.6909 243.015 10.6909 221.341C3.68532 207.061 -0.0293612 190.392 -1.05115e-05 173.365C-1.05115e-05 137.715 15.9299 107.06 38.7509 93.5252C41.7812 91.7289 44.9125 90.247 48.1164 89.0931C49.2496 88.6849 50.3951 88.3188 51.5528 87.9949C54.6389 87.1249 57.7692 86.5564 60.9183 86.2939C62.0564 86.2 63.2007 86.1465 64.351 86.1336H64.9825C66.2528 86.1336 67.512 86.1919 68.764 86.2891L69.1752 85.3657C69.6794 84.2512 70.1958 83.1481 70.7245 82.0563C71.679 80.067 72.6801 78.1069 73.7276 76.176C74.8241 74.1382 75.9683 72.1327 77.1603 70.1597L77.465 69.6737C78.1405 68.5592 78.8307 67.4577 79.5356 66.3691C81.7384 62.9706 84.0636 59.674 86.5112 56.4796C112.985 22.1311 154.46 0.0194092 201.086 0.0194092C237.366 0.0194092 270.529 13.4079 295.931 35.5294C305.554 28.3207 316.425 24.5383 327.482 24.5513C363.366 24.5513 392.465 63.6088 392.465 111.788C392.46 114.836 392.337 117.883 392.098 120.915C400.748 129.02 407.798 139.759 412.654 152.228C417.51 164.697 420.03 178.528 420 192.557Z" fill="#323232"/>
<path opacity="0.2" d="M86.5186 56.4602V66.3497H79.543C81.7287 62.9544 84.0539 59.6579 86.5186 56.4602Z" fill="#323232"/>
<path opacity="0.2" d="M99.3204 53.9525H89.9549V66.3496H99.3204V53.9525Z" fill="#323232"/>
<path opacity="0.2" d="M112.119 53.9525H102.753V66.3496H112.119V53.9525Z" fill="#323232"/>
<path opacity="0.2" d="M124.921 53.9525H115.555V66.3496H124.921V53.9525Z" fill="#323232"/>
<path opacity="0.2" d="M137.719 53.9525H128.353V66.3496H137.719V53.9525Z" fill="#323232"/>
<path opacity="0.2" d="M150.521 53.9525H141.155V66.3496H150.521V53.9525Z" fill="#323232"/>
<path d="M163.323 53.9525H153.957V66.3496H163.323V53.9525Z" fill="#323232"/>
<path opacity="0.2" d="M176.121 53.9525H166.755V66.3496H176.121V53.9525Z" fill="#323232"/>
<path opacity="0.2" d="M188.923 53.9525H179.557V66.3496H188.923V53.9525Z" fill="#323232"/>
<path opacity="0.2" d="M201.721 53.9525H192.356V66.3496H201.721V53.9525Z" fill="#323232"/>
<path d="M214.523 53.9525H205.158V66.3496H214.523V53.9525Z" fill="#323232"/>
<path opacity="0.2" d="M227.325 53.9525H217.959V66.3496H227.325V53.9525Z" fill="#323232"/>
<path opacity="0.2" d="M240.123 53.9525H230.758V66.3496H240.123V53.9525Z" fill="#323232"/>
<path opacity="0.2" d="M252.925 53.9525H243.56V66.3496H252.925V53.9525Z" fill="#323232"/>
<path opacity="0.2" d="M265.727 53.9525H256.362V66.3496H265.727V53.9525Z" fill="#323232"/>
<path opacity="0.2" d="M278.525 53.9525H269.16V66.3496H278.525V53.9525Z" fill="#323232"/>
<path opacity="0.2" d="M291.327 53.9525H281.962V66.3496H291.327V53.9525Z" fill="#323232"/>
<path d="M304.126 53.9525H294.76V66.3496H304.126V53.9525Z" fill="#323232"/>
<path d="M316.927 53.9525H307.562V66.3496H316.927V53.9525Z" fill="#323232"/>
<path opacity="0.2" d="M329.729 53.9525H320.364V66.3496H329.729V53.9525Z" fill="#323232"/>
<path opacity="0.2" d="M342.528 53.9525H333.162V66.3496H342.528V53.9525Z" fill="#323232"/>
<path d="M355.33 53.9525H345.964V66.3496H355.33V53.9525Z" fill="#323232"/>
<path d="M368.128 53.9525H358.762V66.3496H368.128V53.9525Z" fill="#323232"/>
<path d="M73.7203 76.1711V82.0514H70.7171C71.6716 80.0492 72.6727 78.0891 73.7203 76.1711Z" fill="#323232"/>
<path opacity="0.2" d="M86.5185 69.6544H77.153V82.0515H86.5185V69.6544Z" fill="#323232"/>
<path d="M99.3204 69.6544H89.9549V82.0515H99.3204V69.6544Z" fill="#323232"/>
<path opacity="0.2" d="M112.119 69.6544H102.753V82.0515H112.119V69.6544Z" fill="#323232"/>
<path opacity="0.7" d="M124.921 69.6544H115.555V82.0515H124.921V69.6544Z" fill="#323232"/>
<path opacity="0.2" d="M137.719 69.6544H128.353V82.0515H137.719V69.6544Z" fill="#323232"/>
<path opacity="0.4" d="M150.521 69.6544H141.155V82.0515H150.521V69.6544Z" fill="#323232"/>
<path d="M163.323 69.6544H153.957V82.0515H163.323V69.6544Z" fill="#323232"/>
<path opacity="0.4" d="M176.121 69.6544H166.755V82.0515H176.121V69.6544Z" fill="#323232"/>
<path opacity="0.2" d="M188.923 69.6544H179.557V82.0515H188.923V69.6544Z" fill="#323232"/>
<path opacity="0.4" d="M201.721 69.6544H192.356V82.0515H201.721V69.6544Z" fill="#323232"/>
<path d="M214.523 69.6544H205.158V82.0515H214.523V69.6544Z" fill="#323232"/>
<path opacity="0.4" d="M227.325 69.6544H217.959V82.0515H227.325V69.6544Z" fill="#323232"/>
<path opacity="0.4" d="M240.123 69.6544H230.758V82.0515H240.123V69.6544Z" fill="#323232"/>
<path opacity="0.2" d="M252.925 69.6544H243.56V82.0515H252.925V69.6544Z" fill="#323232"/>
<path opacity="0.4" d="M265.727 69.6544H256.362V82.0515H265.727V69.6544Z" fill="#323232"/>
<path opacity="0.4" d="M278.525 69.6544H269.16V82.0515H278.525V69.6544Z" fill="#323232"/>
<path opacity="0.2" d="M291.327 69.6544H281.962V82.0515H291.327V69.6544Z" fill="#323232"/>
<path opacity="0.2" d="M304.126 69.6544H294.76V82.0515H304.126V69.6544Z" fill="#323232"/>
<path opacity="0.4" d="M316.927 69.6544H307.562V82.0515H316.927V69.6544Z" fill="#323232"/>
<path opacity="0.2" d="M329.729 69.6544H320.364V82.0515H329.729V69.6544Z" fill="#323232"/>
<path d="M342.528 69.6544H333.162V82.0515H342.528V69.6544Z" fill="#323232"/>
<path d="M355.33 69.6544H345.964V82.0515H355.33V69.6544Z" fill="#323232"/>
<path d="M368.128 69.6544H358.762V82.0515H368.128V69.6544Z" fill="#323232"/>
<path opacity="0.2" d="M48.1165 89.0931V97.758H38.7509V93.5252C41.7813 91.7289 44.9126 90.247 48.1165 89.0931Z" fill="#323232"/>
<path opacity="0.2" d="M60.9184 86.2939V97.758H51.5528V87.9948L60.9184 86.2939Z" fill="#323232"/>
<path d="M73.7166 85.3608H64.3511V97.758H73.7166V85.3608Z" fill="#323232"/>
<path opacity="0.7" d="M86.5185 85.3608H77.153V97.758H86.5185V85.3608Z" fill="#323232"/>
<path d="M99.3204 85.3608H89.9549V97.758H99.3204V85.3608Z" fill="#323232"/>
<path opacity="0.7" d="M112.119 85.3608H102.753V97.758H112.119V85.3608Z" fill="#323232"/>
<path opacity="0.7" d="M124.921 85.3608H115.555V97.758H124.921V85.3608Z" fill="#323232"/>
<path opacity="0.2" d="M137.719 85.3608H128.353V97.758H137.719V85.3608Z" fill="#323232"/>
<path opacity="0.4" d="M150.521 85.3608H141.155V97.758H150.521V85.3608Z" fill="#323232"/>
<path opacity="0.4" d="M163.323 85.3608H153.957V97.758H163.323V85.3608Z" fill="#323232"/>
<path d="M176.121 85.3608H166.755V97.758H176.121V85.3608Z" fill="#323232"/>
<path opacity="0.2" d="M188.923 85.3608H179.557V97.758H188.923V85.3608Z" fill="#323232"/>
<path opacity="0.4" d="M201.721 85.3608H192.356V97.758H201.721V85.3608Z" fill="#323232"/>
<path d="M214.523 85.3608H205.158V97.758H214.523V85.3608Z" fill="#323232"/>
<path opacity="0.2" d="M227.325 85.3608H217.959V97.758H227.325V85.3608Z" fill="#323232"/>
<path opacity="0.4" d="M240.123 85.3608H230.758V97.758H240.123V85.3608Z" fill="#323232"/>
<path opacity="0.2" d="M252.925 85.3608H243.56V97.758H252.925V85.3608Z" fill="#323232"/>
<path d="M265.727 85.3608H256.362V97.758H265.727V85.3608Z" fill="#323232"/>
<path opacity="0.2" d="M278.525 85.3608H269.16V97.758H278.525V85.3608Z" fill="#323232"/>
<path opacity="0.7" d="M291.327 85.3608H281.962V97.758H291.327V85.3608Z" fill="#323232"/>
<path opacity="0.7" d="M304.126 85.3608H294.76V97.758H304.126V85.3608Z" fill="#323232"/>
<path opacity="0.4" d="M316.927 85.3608H307.562V97.758H316.927V85.3608Z" fill="#323232"/>
<path opacity="0.2" d="M329.729 85.3608H320.364V97.758H329.729V85.3608Z" fill="#323232"/>
<path d="M342.528 85.3608H333.162V97.758H342.528V85.3608Z" fill="#323232"/>
<path d="M355.33 85.3608H345.964V97.758H355.33V85.3608Z" fill="#323232"/>
<path d="M368.128 85.3608H358.762V97.758H368.128V85.3608Z" fill="#323232"/>
<path opacity="0.2" d="M48.1165 101.063H38.7509V113.46H48.1165V101.063Z" fill="#323232"/>
<path opacity="0.2" d="M60.9184 101.063H51.5528V113.46H60.9184V101.063Z" fill="#323232"/>
<path opacity="0.2" d="M73.7166 101.063H64.3511V113.46H73.7166V101.063Z" fill="#323232"/>
<path opacity="0.2" d="M86.5185 101.063H77.153V113.46H86.5185V101.063Z" fill="#323232"/>
<path d="M99.3204 101.063H89.9549V113.46H99.3204V101.063Z" fill="#323232"/>
<path opacity="0.7" d="M112.119 101.063H102.753V113.46H112.119V101.063Z" fill="#323232"/>
<path opacity="0.7" d="M124.921 101.063H115.555V113.46H124.921V101.063Z" fill="#323232"/>
<path opacity="0.2" d="M137.719 101.063H128.353V113.46H137.719V101.063Z" fill="#323232"/>
<path opacity="0.2" d="M150.521 101.063H141.155V113.46H150.521V101.063Z" fill="#323232"/>
<path opacity="0.4" d="M163.323 101.063H153.957V113.46H163.323V101.063Z" fill="#323232"/>
<path opacity="0.4" d="M176.121 101.063H166.755V113.46H176.121V101.063Z" fill="#323232"/>
<path d="M188.923 101.063H179.557V113.46H188.923V101.063Z" fill="#323232"/>
<path opacity="0.2" d="M201.721 101.063H192.356V113.46H201.721V101.063Z" fill="#323232"/>
<path opacity="0.4" d="M214.523 101.063H205.158V113.46H214.523V101.063Z" fill="#323232"/>
<path opacity="0.4" d="M227.325 101.063H217.959V113.46H227.325V101.063Z" fill="#323232"/>
<path opacity="0.4" d="M240.123 101.063H230.758V113.46H240.123V101.063Z" fill="#323232"/>
<path opacity="0.4" d="M252.925 101.063H243.56V113.46H252.925V101.063Z" fill="#323232"/>
<path opacity="0.2" d="M265.727 101.063H256.362V113.46H265.727V101.063Z" fill="#323232"/>
<path opacity="0.2" d="M278.525 101.063H269.16V113.46H278.525V101.063Z" fill="#323232"/>
<path opacity="0.2" d="M291.327 101.063H281.962V113.46H291.327V101.063Z" fill="#323232"/>
<path opacity="0.2" d="M304.126 101.063H294.76V113.46H304.126V101.063Z" fill="#323232"/>
<path opacity="0.7" d="M316.927 101.063H307.562V113.46H316.927V101.063Z" fill="#323232"/>
<path opacity="0.7" d="M329.729 101.063H320.364V113.46H329.729V101.063Z" fill="#323232"/>
<path opacity="0.4" d="M342.528 101.063H333.162V113.46H342.528V101.063Z" fill="#323232"/>
<path opacity="0.2" d="M355.33 101.063H345.964V113.46H355.33V101.063Z" fill="#323232"/>
<path d="M368.128 101.063H358.762V113.46H368.128V101.063Z" fill="#323232"/>
<path opacity="0.2" d="M48.1165 116.769H38.7509V129.166H48.1165V116.769Z" fill="#323232"/>
<path opacity="0.2" d="M60.9184 116.769H51.5528V129.166H60.9184V116.769Z" fill="#323232"/>
<path opacity="0.4" d="M73.7166 116.769H64.3511V129.166H73.7166V116.769Z" fill="#323232"/>
<path opacity="0.2" d="M86.5185 116.769H77.153V129.166H86.5185V116.769Z" fill="#323232"/>
<path opacity="0.2" d="M99.3204 116.769H89.9549V129.166H99.3204V116.769Z" fill="#323232"/>
<path opacity="0.7" d="M112.119 116.769H102.753V129.166H112.119V116.769Z" fill="#323232"/>
<path opacity="0.7" d="M124.921 116.769H115.555V129.166H124.921V116.769Z" fill="#323232"/>
<path opacity="0.2" d="M137.719 116.769H128.353V129.166H137.719V116.769Z" fill="#323232"/>
<path opacity="0.2" d="M150.521 116.769H141.155V129.166H150.521V116.769Z" fill="#323232"/>
<path opacity="0.4" d="M163.323 116.769H153.957V129.166H163.323V116.769Z" fill="#323232"/>
<path d="M176.121 116.769H166.755V129.166H176.121V116.769Z" fill="#323232"/>
<path opacity="0.2" d="M188.923 116.769H179.557V129.166H188.923V116.769Z" fill="#323232"/>
<path d="M201.721 116.769H192.356V129.166H201.721V116.769Z" fill="#323232"/>
<path d="M214.523 116.769H205.158V129.166H214.523V116.769Z" fill="#323232"/>
<path d="M227.325 116.769H217.959V129.166H227.325V116.769Z" fill="#323232"/>
<path opacity="0.2" d="M240.123 116.769H230.758V129.166H240.123V116.769Z" fill="#323232"/>
<path d="M252.925 116.769H243.56V129.166H252.925V116.769Z" fill="#323232"/>
<path opacity="0.2" d="M265.727 116.769H256.362V129.166H265.727V116.769Z" fill="#323232"/>
<path opacity="0.2" d="M278.525 116.769H269.16V129.166H278.525V116.769Z" fill="#323232"/>
<path opacity="0.2" d="M291.327 116.769H281.962V129.166H291.327V116.769Z" fill="#323232"/>
<path opacity="0.2" d="M304.126 116.769H294.76V129.166H304.126V116.769Z" fill="#323232"/>
<path opacity="0.2" d="M316.927 116.769H307.562V129.166H316.927V116.769Z" fill="#323232"/>
<path opacity="0.7" d="M329.729 116.769H320.364V129.166H329.729V116.769Z" fill="#323232"/>
<path opacity="0.2" d="M342.528 116.769H333.162V129.166H342.528V116.769Z" fill="#323232"/>
<path opacity="0.2" d="M355.33 116.769H345.964V129.166H355.33V116.769Z" fill="#323232"/>
<path d="M368.128 116.769H358.762V129.166H368.128V116.769Z" fill="#323232"/>
<path opacity="0.2" d="M48.1165 132.471H38.7509V144.868H48.1165V132.471Z" fill="#323232"/>
<path opacity="0.2" d="M60.9184 132.471H51.5528V144.868H60.9184V132.471Z" fill="#323232"/>
<path opacity="0.2" d="M73.7166 132.471H64.3511V144.868H73.7166V132.471Z" fill="#323232"/>
<path opacity="0.4" d="M86.5185 132.471H77.153V144.868H86.5185V132.471Z" fill="#323232"/>
<path opacity="0.2" d="M99.3204 132.471H89.9549V144.868H99.3204V132.471Z" fill="#323232"/>
<path opacity="0.2" d="M112.119 132.471H102.753V144.868H112.119V132.471Z" fill="#323232"/>
<path opacity="0.7" d="M124.921 132.471H115.555V144.868H124.921V132.471Z" fill="#323232"/>
<path opacity="0.2" d="M137.719 132.471H128.353V144.868H137.719V132.471Z" fill="#323232"/>
<path opacity="0.2" d="M150.521 132.471H141.155V144.868H150.521V132.471Z" fill="#323232"/>
<path opacity="0.2" d="M163.323 132.471H153.957V144.868H163.323V132.471Z" fill="#323232"/>
<path d="M176.121 132.471H166.755V144.868H176.121V132.471Z" fill="#323232"/>
<path opacity="0.2" d="M188.923 132.471H179.557V144.868H188.923V132.471Z" fill="#323232"/>
<path d="M201.721 132.471H192.356V144.868H201.721V132.471Z" fill="#323232"/>
<path d="M214.523 132.471H205.158V144.868H214.523V132.471Z" fill="#323232"/>
<path opacity="0.2" d="M227.325 132.471H217.959V144.868H227.325V132.471Z" fill="#323232"/>
<path opacity="0.2" d="M240.123 132.471H230.758V144.868H240.123V132.471Z" fill="#323232"/>
<path opacity="0.2" d="M252.925 132.471H243.56V144.868H252.925V132.471Z" fill="#323232"/>
<path opacity="0.2" d="M265.727 132.471H256.362V144.868H265.727V132.471Z" fill="#323232"/>
<path opacity="0.2" d="M278.525 132.471H269.16V144.868H278.525V132.471Z" fill="#323232"/>
<path opacity="0.2" d="M291.327 132.471H281.962V144.868H291.327V132.471Z" fill="#323232"/>
<path opacity="0.2" d="M304.126 132.471H294.76V144.868H304.126V132.471Z" fill="#323232"/>
<path opacity="0.2" d="M316.927 132.471H307.562V144.868H316.927V132.471Z" fill="#323232"/>
<path opacity="0.2" d="M329.729 132.471H320.364V144.868H329.729V132.471Z" fill="#323232"/>
<path opacity="0.2" d="M342.528 132.471H333.162V144.868H342.528V132.471Z" fill="#323232"/>
<path opacity="0.4" d="M355.33 132.471H345.964V144.868H355.33V132.471Z" fill="#323232"/>
<path d="M368.128 132.471H358.762V144.868H368.128V132.471Z" fill="#323232"/>
<path opacity="0.7" d="M48.1165 148.178H38.7509V160.575H48.1165V148.178Z" fill="#323232"/>
<path opacity="0.7" d="M60.9184 148.178H51.5528V160.575H60.9184V148.178Z" fill="#323232"/>
<path opacity="0.7" d="M73.7166 148.178H64.3511V160.575H73.7166V148.178Z" fill="#323232"/>
<path opacity="0.7" d="M86.5185 148.178H77.153V160.575H86.5185V148.178Z" fill="#323232"/>
<path opacity="0.7" d="M99.3204 148.178H89.9549V160.575H99.3204V148.178Z" fill="#323232"/>
<path opacity="0.2" d="M112.119 148.178H102.753V160.575H112.119V148.178Z" fill="#323232"/>
<path opacity="0.2" d="M124.921 148.178H115.555V160.575H124.921V148.178Z" fill="#323232"/>
<path opacity="0.2" d="M137.719 148.178H128.353V160.575H137.719V148.178Z" fill="#323232"/>
<path opacity="0.2" d="M150.521 148.178H141.155V160.575H150.521V148.178Z" fill="#323232"/>
<path opacity="0.2" d="M163.323 148.178H153.957V160.575H163.323V148.178Z" fill="#323232"/>
<path opacity="0.2" d="M176.121 148.178H166.755V160.575H176.121V148.178Z" fill="#323232"/>
<path d="M188.923 148.178H179.557V160.575H188.923V148.178Z" fill="#323232"/>
<path opacity="0.2" d="M201.721 148.178H192.356V160.575H201.721V148.178Z" fill="#323232"/>
<path opacity="0.2" d="M214.523 148.178H205.158V160.575H214.523V148.178Z" fill="#323232"/>
<path opacity="0.2" d="M227.325 148.178H217.959V160.575H227.325V148.178Z" fill="#323232"/>
<path d="M240.123 148.178H230.758V160.575H240.123V148.178Z" fill="#323232"/>
<path opacity="0.2" d="M252.925 148.178H243.56V160.575H252.925V148.178Z" fill="#323232"/>
<path opacity="0.2" d="M265.727 148.178H256.362V160.575H265.727V148.178Z" fill="#323232"/>
<path opacity="0.2" d="M278.525 148.178H269.16V160.575H278.525V148.178Z" fill="#323232"/>
<path opacity="0.2" d="M291.327 148.178H281.962V160.575H291.327V148.178Z" fill="#323232"/>
<path opacity="0.2" d="M304.126 148.178H294.76V160.575H304.126V148.178Z" fill="#323232"/>
<path opacity="0.2" d="M316.927 148.178H307.562V160.575H316.927V148.178Z" fill="#323232"/>
<path opacity="0.2" d="M329.729 148.178H320.364V160.575H329.729V148.178Z" fill="#323232"/>
<path opacity="0.2" d="M342.528 148.178H333.162V160.575H342.528V148.178Z" fill="#323232"/>
<path opacity="0.2" d="M355.33 148.178H345.964V160.575H355.33V148.178Z" fill="#323232"/>
<path d="M368.128 148.178H358.762V160.575H368.128V148.178Z" fill="#323232"/>
<path d="M269.666 193.786C276.737 193.786 282.468 186.199 282.468 176.84C282.468 167.481 276.737 159.894 269.666 159.894C262.596 159.894 256.865 167.481 256.865 176.84C256.865 186.199 262.596 193.786 269.666 193.786Z" fill="#767D9F"/>
<path d="M269.002 155.282C270.28 162.663 271.364 170.098 272.255 177.589C272.523 179.814 272.761 182.162 272.152 184.266C271.642 186.02 270.603 187.391 269.788 188.926C268.973 190.462 268.356 192.43 268.851 194.189C269.347 195.949 270.794 196.911 272.174 197.406C276.124 198.816 280.335 197.79 284.267 196.264C286.048 195.658 287.754 194.722 289.337 193.485C291.004 192.085 292.37 190.141 293.626 188.139C299.356 178.94 303.109 167.898 306.64 156.925C304.371 157.198 302.085 156.753 299.971 155.626C297.858 154.499 295.977 152.722 294.485 150.442C293.038 148.192 291.977 145.058 292.792 142.307C290.402 144.042 287.564 144.159 284.991 145.344C283.395 146.151 281.858 147.152 280.401 148.333C278.644 149.678 276.896 151.048 275.159 152.444C273.173 154.029 271.311 155.438 269.002 155.282Z" fill="#AE6E79"/>
<path d="M295.777 168.005C293.534 173.783 290.615 179.338 286.448 182.779C282.281 186.219 276.671 187.153 272.497 183.751C270.441 182.089 268.884 179.562 267.089 177.433C265.294 175.305 263.051 173.482 260.639 173.759C257.981 174.065 255.899 176.811 254.118 179.44C251.416 183.435 248.806 187.6 246.893 192.328C243.222 201.416 242.352 212.039 242.513 222.342C242.675 232.644 243.802 242.893 243.828 253.196C243.864 265.87 242.242 278.442 240.601 290.927C255.69 288.468 270.797 293.843 285.919 295.879C295.597 297.196 305.348 297.167 315.077 297.133C316.788 297.133 318.609 297.074 320.033 295.821C320.904 294.98 321.608 293.873 322.086 292.594C323.429 289.313 323.969 285.572 324.343 281.873C325.294 272.533 325.324 263.076 325.349 253.648C325.416 230.807 325.478 207.884 323.286 185.223C322.746 179.649 322.056 174.046 320.441 168.831C318.825 163.617 316.189 158.82 312.503 156.026C310.135 154.228 304.647 151.098 301.857 152.911C298.725 154.933 297.278 164.137 295.777 168.005Z" fill="#767D9F"/>
<path d="M296.893 232.503C296.324 218.41 294.007 203.369 298.938 190.861C300.149 187.789 295.803 183.955 297.146 180.981C298.786 177.355 300.03 173.439 300.84 169.351C301.119 167.947 301.343 166.46 301.078 165.051C300.59 162.48 298.67 160.949 297.04 159.384C295.241 157.654 294.316 152.381 293.736 149.529C293.156 146.676 298.351 150.112 300.44 149.096C303.34 147.692 307.026 148.576 309.919 150C311.534 150.787 313.289 150.855 315.011 150.914C318.356 151.03 321.711 151.142 325.03 150.598C326.521 150.35 328.015 149.976 329.513 150.088C333.335 150.374 336.657 153.834 338.919 157.926C341.18 162.018 342.619 166.786 344.473 171.218C346.019 174.911 347.862 178.4 349.18 182.244C350.347 185.646 351.085 189.301 351.816 192.936L353.699 202.261C354.029 203.596 354.185 204.994 354.162 206.397C354.067 207.889 353.567 209.279 353.061 210.606C351.145 215.523 348.848 220.163 346.206 224.451C342.245 230.88 337.435 236.678 335.082 244.376C334.164 247.374 333.654 250.562 333.188 253.74C331.308 266.452 329.972 279.294 329.186 292.205C324.896 289.577 320.399 287.587 315.778 286.271C313.475 285.619 311.146 285.132 308.803 284.813C306.751 284.532 304.103 285.066 302.15 284.327C298.883 283.098 298.523 275.784 298.027 271.955C297.234 265.856 297.077 259.65 297.047 253.488C297.01 246.48 297.176 239.487 296.893 232.503Z" fill="#4C4981"/>
<path d="M225.137 206.149C226.682 217.813 228.386 229.51 231.745 240.469C231.661 240.575 231.576 240.673 231.492 240.77C231.195 241.105 230.886 241.421 230.563 241.742C229.81 242.442 228.984 243.034 228.36 243.948C228.124 244.298 227.937 244.701 227.81 245.139C227.694 245.481 227.635 245.851 227.635 246.225C227.635 246.599 227.694 246.969 227.81 247.311C226.058 248.336 224.024 248.021 222.06 247.923C220.368 247.841 218.727 247.923 217.368 249.153C215.481 250.873 214.912 254.178 214.607 257.181C214.495 258.276 214.398 259.373 214.317 260.471C214.239 261.492 214.175 262.515 214.127 263.542C213.96 266.94 213.937 270.347 214.057 273.748C214.076 274.37 214.102 274.992 214.134 275.614C208.135 275.424 202.668 271.284 197.495 267.26C196.313 266.342 195.094 265.375 194.327 263.858C193.62 262.369 193.321 260.604 193.479 258.858C193.479 258.61 193.512 258.372 193.538 258.119C193.702 256.677 193.984 255.263 194.378 253.901C195.997 248.1 198.383 242.727 201.424 238.034C202.738 236.002 204.218 234.015 204.831 231.464C205.099 230.351 205.198 229.17 205.47 228.062C206.688 223.26 211.087 220.991 212.592 216.33C212.959 215.217 213.128 213.998 213.583 212.929C213.993 212.04 214.522 211.258 215.144 210.62C215.412 210.324 215.691 210.037 215.966 209.75C218.546 207.074 221.031 204.247 223.422 201.27C223.868 200.716 224.308 200.156 224.744 199.589C224.686 201.788 224.818 203.989 225.137 206.149Z" fill="#4C4981"/>
<path d="M262.133 171.655C261.604 172.393 261.031 173.088 260.47 173.778L260.319 173.958L259.724 174.687C258.645 175.921 257.711 177.36 256.953 178.959L256.89 179.095C255.018 183.532 255.712 188.994 256.233 194.034C256.88 200.314 257.17 206.649 257.103 212.987C257.008 221.734 256.229 230.423 256.215 239.161C256.215 241.144 256.248 243.122 256.314 245.105C256.42 248.327 256.604 251.544 256.824 254.761C257.063 258.289 257.349 261.812 257.617 265.336C257.83 268.062 258.032 270.783 258.201 273.505C258.285 274.914 258.366 276.318 258.432 277.728C258.509 279.38 258.572 281.037 258.608 282.69C258.634 283.739 258.649 284.784 258.649 285.834C258.649 286.432 258.649 287.024 258.649 287.617C258.649 288.754 258.626 289.888 258.579 291.019C258.53 292.474 258.455 293.932 258.355 295.393C258.241 296.982 258.039 298.717 257.195 299.835C257.144 299.903 257.088 299.966 257.033 300.029L255.844 299.835C247.644 298.535 239.366 298.34 231.136 299.251C231.316 297.609 231.481 295.971 231.642 294.324C231.716 293.546 231.789 292.764 231.859 291.981C231.94 291.087 232.017 290.193 232.09 289.299C232.175 288.327 232.252 287.355 232.325 286.383C232.516 283.879 232.684 281.373 232.828 278.865C233.041 275.207 233.203 271.543 233.313 267.872C233.367 266.12 233.408 264.365 233.438 262.609C233.479 260.432 233.499 258.253 233.496 256.073C233.496 253.954 233.483 251.832 233.456 249.707C233.456 249.007 233.434 248.307 233.39 247.612C233.358 246.986 233.293 246.364 233.195 245.751C232.923 244.336 232.554 242.957 232.094 241.63C232.013 241.377 231.936 241.144 231.859 240.877C231.815 240.745 231.775 240.609 231.734 240.478C233.849 237.985 235.354 234.646 236.801 231.361C239.147 226.069 241.548 220.544 241.941 214.43C242.333 208.316 240.039 201.45 235.626 199.584C234.425 199.098 233.155 198.962 231.918 198.675C230.75 198.403 228.316 197.785 226.965 196.677C226.231 197.675 225.497 198.655 224.762 199.618C224.807 198.149 225.078 196.709 225.559 195.385L226.08 195.419C226.038 195.263 226.018 195.098 226.022 194.933C226.022 194.413 226.293 193.825 226.873 193.174C228.603 191.23 231.323 190.797 232.413 188.168C232.869 187.075 232.946 185.772 233.313 184.625C234.367 181.355 237.392 180.15 239.213 177.535C241.034 174.921 241.489 171.217 242.961 168.302C244.061 166.172 245.586 164.49 247.367 163.442C247.514 163.35 247.664 163.257 247.815 163.175C250.862 161.449 254.482 161.056 257.639 161.065C258.865 161.065 262.045 161.114 263.601 161.935C263.854 162.055 264.085 162.242 264.281 162.485C265.94 164.876 263.359 169.925 262.133 171.655Z" fill="#4C4981"/>
<path d="M225.684 195.045C228.52 193.915 231.497 193.542 234.443 193.948C237.389 194.354 240.245 195.532 242.844 197.411C245.487 199.355 247.859 202.067 249.313 205.566C251.497 210.815 251.402 217.142 251.247 223.134C251.17 226.132 251.071 229.238 250.073 231.93C248.916 235.045 246.735 237.183 244.511 238.933C243.117 240.11 241.59 240.984 239.987 241.523C237.52 242.233 234.958 241.63 232.472 241.037C229.77 240.376 226.87 239.579 224.994 236.916C223.892 235.371 223.29 233.364 222.695 231.4C221.841 228.565 220.985 225.734 220.126 222.905C218.639 217.992 218.136 213.905 220.1 209.118C220.992 206.936 222.082 204.895 222.963 202.699C223.404 201.581 224.983 195.331 225.684 195.045Z" fill="#4C4981"/>
<path d="M379.982 279.055V293.585C372.451 297.726 364.373 299.841 356.218 299.806H257.206C257.155 299.874 257.099 299.937 257.044 300L255.855 299.806H79.7302C64.9531 299.806 51.2591 294.528 40.0285 285.537V263.353L124.733 250.411H124.799L174.127 255.942L186.893 257.4L193.523 258.143L207.246 259.684L214.306 260.476L224.586 261.632L226.033 261.793L233.441 262.624L243.493 263.717L257.628 265.302L281.191 267.95L297.767 269.811L324.986 272.868L330.163 273.446L330.721 273.51L331.205 273.563L338.041 274.331L345.545 275.176L346.416 275.274L379.982 279.055Z" fill="#504F60"/>
<path d="M280.489 278.52L174.337 254.537L170.221 282.087L218.881 289.799L233.864 292.283L275.078 281.538L280.489 278.52Z" fill="#9C9CA1"/>
<path d="M225.541 290.903L278.724 277.67C278.99 277.602 279.264 277.614 279.526 277.703C279.788 277.792 280.033 277.957 280.241 278.186C280.45 278.415 280.617 278.703 280.732 279.028C280.846 279.352 280.905 279.707 280.904 280.066C280.906 280.634 280.756 281.186 280.481 281.624C280.207 282.061 279.825 282.358 279.403 282.461L227.465 295.335L225.541 290.903Z" fill="#9C9CA1"/>
<path d="M248.611 249.289C250.267 249.085 251.945 248.74 253.435 247.768C255.271 246.558 256.699 244.473 258.399 242.937C262.137 239.536 267.137 239.079 271.421 241.032C275.706 242.986 279.282 247.17 281.785 252.166C283.449 255.495 284.697 259.742 283.522 263.416C283.119 264.539 282.611 265.591 282.009 266.546L278.948 271.843C278.366 272.956 277.666 273.953 276.87 274.802C275.724 275.906 274.3 276.358 272.897 276.63C269.171 277.349 265.378 276.941 261.623 277.271C255.172 277.84 248.872 280.59 242.407 280.498C238.691 280.445 235.024 279.453 231.393 278.462L215.323 274.088C212.526 273.33 209.365 272.222 208.047 268.864C207.456 267.353 207.346 265.603 207.276 263.902C207.085 259.217 207.276 254.008 209.728 250.63C212.034 247.462 215.68 246.461 218.433 244.118C221.803 241.246 222.916 242.174 226.47 244.332C233.403 248.488 241.031 250.196 248.611 249.289Z" fill="#AE6E79"/>
<path opacity="0.05" d="M248.611 249.289C250.267 249.085 251.945 248.74 253.435 247.768C255.271 246.558 256.699 244.473 258.399 242.937C262.137 239.536 267.137 239.079 271.421 241.032C275.706 242.986 279.282 247.17 281.785 252.166C283.449 255.495 284.697 259.742 283.522 263.416C283.119 264.539 282.611 265.591 282.009 266.546L278.948 271.843C278.366 272.956 277.666 273.953 276.87 274.802C275.724 275.906 274.3 276.358 272.897 276.63C269.171 277.349 265.378 276.941 261.623 277.271C255.172 277.84 248.872 280.59 242.407 280.498C238.691 280.445 235.024 279.453 231.393 278.462L215.323 274.088C212.526 273.33 209.365 272.222 208.047 268.864C207.456 267.353 207.346 265.603 207.276 263.902C207.085 259.217 207.276 254.008 209.728 250.63C212.034 247.462 215.68 246.461 218.433 244.118C221.803 241.246 222.916 242.174 226.47 244.332C233.403 248.488 241.031 250.196 248.611 249.289Z" fill="black"/>
<path d="M313.142 242.626C308.634 244.935 304.1 247.253 299.379 248.628C291.463 250.936 283.181 250.572 275.328 253.211C271.179 254.61 267.056 256.865 262.794 256.408C260.888 256.204 259.049 255.436 257.195 254.853C246.779 251.452 234.939 252.555 226.481 261.302C223.588 264.291 221.22 268.018 219.072 271.994C218.612 272.852 218.302 273.835 218.162 274.871C218.023 275.906 218.058 276.97 218.265 277.986C218.473 279.002 218.847 279.945 219.361 280.747C219.876 281.549 220.518 282.191 221.242 282.627C224.531 284.629 228.055 285.873 231.661 286.305C236.481 286.869 241.324 285.965 246.119 285.061C253.234 283.725 260.352 282.384 267.449 280.882C269.997 280.343 272.545 279.784 275.107 279.356C293.548 276.27 312.324 280.022 330.812 277.446C332.681 277.184 334.583 276.844 336.283 275.789C340.585 273.116 342.715 266.07 341.826 259.878C340.938 253.687 337.509 248.541 333.382 245.382C329.924 242.723 326.194 241.649 322.343 240.522C318.767 239.419 316.586 240.877 313.142 242.626Z" fill="#AE6E79"/>
<path opacity="0.1" d="M352.693 205.615C354.727 209.143 355.161 213.876 354.94 218.294C354.72 222.711 353.927 227.08 353.81 231.517C353.648 237.601 354.757 243.666 354.57 249.731C354.437 253.974 353.677 258.134 352.778 262.206C351.717 267.012 350.182 272.178 346.83 274.487C342.381 277.553 333.048 275.828 328.367 278.229C328.793 274.715 332.876 269.627 333.302 266.113C333.595 263.683 333.893 261.186 333.577 258.751C333.173 255.645 331.796 252.89 330.163 250.596C327.563 246.947 324.171 244.201 320.445 243.307C316.718 242.412 307.595 243.146 304.614 246.261C304.247 243.044 311.075 239.944 313.476 239.249C314.673 238.894 316.046 239.093 317.005 238.087C318.84 236.182 317.507 232.387 317.596 229.34C317.665 226.91 318.737 224.684 318.954 222.254C319.321 218.367 317.405 214.406 318.157 210.591C318.436 209.182 319.057 207.942 319.486 206.601C320.793 202.495 320.221 197.81 319.523 193.446C319.09 190.705 318.668 187.614 319.82 185.277C320.889 183.095 323.921 190.865 325.863 190.506C332.277 189.315 338.082 183.022 343.262 188.173C345.902 190.797 346.247 193.519 347.3 197.266C348.325 200.833 350.979 202.66 352.693 205.615Z" fill="black"/>
<path d="M353.795 205.615C355.829 209.143 356.262 213.876 356.042 218.294C355.822 222.711 355.029 227.08 354.911 231.517C354.75 237.601 355.858 243.666 355.671 249.731C355.539 253.974 354.779 258.134 353.879 262.206C352.818 267.012 351.284 272.178 347.932 274.486C343.482 277.553 334.15 275.828 329.469 278.228C329.895 274.715 333.977 269.627 334.403 266.113C334.697 263.683 334.994 261.185 334.678 258.751C334.274 255.645 332.898 252.89 331.264 250.596C328.665 246.946 325.272 244.201 321.546 243.307C317.82 242.412 308.696 243.146 305.715 246.261C305.348 243.044 312.177 239.944 314.578 239.249C315.775 238.894 317.148 239.093 318.106 238.087C319.942 236.182 318.609 232.387 318.697 229.34C318.767 226.91 319.839 224.684 320.055 222.254C320.423 218.366 318.506 214.406 319.259 210.591C319.538 209.182 320.158 207.942 320.588 206.601C321.895 202.495 321.322 197.81 320.624 193.446C320.191 190.705 319.769 187.614 320.922 185.277C321.99 183.095 324.079 182.269 326.021 181.904C332.524 180.74 339.113 182.99 344.378 188.173C347.018 190.797 347.363 193.519 348.416 197.266C349.426 200.833 352.08 202.66 353.795 205.615Z" fill="#4C4981"/>
<path d="M110.874 182.589L130.835 280.24C131.08 281.437 131.595 282.506 132.31 283.306C133.026 284.105 133.908 284.597 134.841 284.716L224.685 296.141C225.418 296.235 226.156 296.095 226.839 295.733C227.522 295.371 228.129 294.797 228.61 294.06C229.091 293.324 229.432 292.445 229.604 291.498C229.776 290.552 229.773 289.564 229.598 288.618L207.738 170.829C207.478 169.429 206.852 168.196 205.97 167.35C205.088 166.504 204.008 166.099 202.922 166.207L114.96 174.916C114.285 174.985 113.629 175.251 113.041 175.694C112.452 176.138 111.944 176.748 111.554 177.48C111.164 178.213 110.9 179.051 110.783 179.934C110.665 180.817 110.697 181.724 110.874 182.589Z" fill="#9C9CA1"/>
<path d="M288.974 201.644C294.428 201.644 298.85 195.715 298.85 188.402C298.85 181.088 294.428 175.159 288.974 175.159C283.52 175.159 279.098 181.088 279.098 188.402C279.098 195.715 283.52 201.644 288.974 201.644Z" fill="white"/>
<path d="M297.084 164.244C297.084 164.244 299.166 172.437 293.023 175.883L292.238 177.7L296.085 182.725C296.085 182.725 300.829 171.271 300.315 167.203C300.315 167.203 299.58 163.073 297.084 164.244Z" fill="white"/>
<path d="M290.108 201.644C295.368 201.644 299.632 196 299.632 189.038C299.632 182.076 295.368 176.432 290.108 176.432C284.849 176.432 280.585 182.076 280.585 189.038C280.585 196 284.849 201.644 290.108 201.644Z" fill="#323232"/>
<path d="M300.362 169.065L298.85 165.76L296.647 165.347C297.117 154.466 294.984 151.225 294.984 151.225L294.488 151.161L292.33 150.884L288.269 145.305V143.721C293.974 144.62 297.128 148.207 298.831 152.41C301.842 159.787 300.362 169.065 300.362 169.065Z" fill="#323232"/>
<path opacity="0.1" d="M294.507 149.159V151.162L292.348 150.885L288.287 145.306C288.287 145.306 294.569 147.167 294.507 149.159Z" fill="black" stroke="#4C4981" stroke-miterlimit="10"/>
<path opacity="0.1" d="M300.362 169.065L298.85 165.76V152.43C301.842 159.787 300.362 169.065 300.362 169.065Z" fill="black" stroke="#4C4981" stroke-miterlimit="10"/>
<path d="M272.51 194.22C275.044 192.284 274.935 185.754 272.267 179.637C269.599 173.519 265.381 170.129 262.848 172.066C260.314 174.002 260.423 180.532 263.091 186.649C265.759 192.767 269.977 196.157 272.51 194.22Z" fill="white"/>
<path d="M269.108 182.074C271.777 188.193 275.052 192.28 272.519 194.223C269.986 196.167 262.606 195.195 259.937 189.072C257.268 182.949 259.691 174.493 262.225 172.549C264.758 170.605 266.436 175.941 269.108 182.074Z" fill="#323232"/>
<path opacity="0.1" d="M292.873 137.997C292.873 157.547 282.766 176.388 267.996 176.388C260.903 176.388 254.1 172.658 249.084 166.019C244.068 159.38 241.25 150.375 241.25 140.985C241.25 131.596 244.068 122.591 249.084 115.952C254.1 109.312 260.903 105.582 267.996 105.582C282.766 105.602 292.873 118.441 292.873 137.997Z" fill="black"/>
<path d="M267.996 175.436C282.767 175.436 294.742 159.585 294.742 140.033C294.742 120.48 282.767 104.63 267.996 104.63C253.225 104.63 241.25 120.48 241.25 140.033C241.25 159.585 253.225 175.436 267.996 175.436Z" fill="#AE6E79"/>
<path opacity="0.1" d="M297.451 127.393C297.271 128.112 296.999 128.919 296.449 129.128C296.045 129.199 295.635 129.122 295.263 128.904C292.733 127.874 290.031 129.006 287.48 129.934C282.865 131.616 277.596 132.515 273.573 129.094C270.713 126.664 268.833 122.29 265.646 120.764C257.705 116.876 252.896 129.453 248.681 136.043C248.261 136.776 247.754 137.415 247.18 137.933C246.303 138.538 245.316 138.806 244.331 138.706C237.935 138.555 231.911 132.179 230.38 123.947C230.295 123.461 230.222 122.975 230.167 122.489C230.167 122.533 230.167 122.572 230.148 122.616C229.979 124.251 230.058 125.915 230.38 127.509C231.892 135.742 237.917 142.118 244.331 142.268C245.316 142.368 246.303 142.1 247.18 141.496C247.754 140.977 248.261 140.338 248.681 139.605C252.896 133.015 257.705 120.458 265.646 124.326C268.833 125.876 270.713 130.231 273.573 132.656C277.611 136.058 282.865 135.178 287.48 133.496C290.05 132.568 292.733 131.436 295.263 132.466C295.635 132.684 296.045 132.762 296.449 132.69C296.999 132.481 297.271 131.674 297.451 130.955C298.713 125.904 299.27 120.592 299.096 115.277C298.988 119.399 298.434 123.479 297.451 127.393Z" fill="black"/>
<path d="M265.646 124.345C268.829 125.896 270.713 130.25 273.569 132.675C277.608 136.077 282.865 135.197 287.476 133.516C290.046 132.588 292.733 131.455 295.263 132.485C295.635 132.704 296.045 132.781 296.449 132.709C296.999 132.5 297.271 131.693 297.451 130.974C300.579 118.63 299.173 104.649 294.452 93.2287C293.233 90.2837 291.771 87.4359 289.76 85.39C288.174 83.7814 286.309 82.7269 284.429 81.8278C280.994 80.1947 277.441 79.0336 273.826 78.3629C273.188 78.2093 272.536 78.1815 271.891 78.2802C271.006 78.4698 270.213 79.1015 269.424 79.6653C266.043 82.0641 262.294 83.4119 258.462 83.6065C253.322 83.8641 247.448 82.2603 243.486 86.6244C238.713 91.8583 239.903 102.069 236.808 109.173C234.759 113.873 230.809 117.284 230.159 122.635C229.99 124.27 230.069 125.934 230.391 127.529C231.903 135.761 237.924 142.137 244.342 142.288C245.327 142.387 246.314 142.119 247.191 141.515C247.765 140.996 248.272 140.358 248.692 139.624C252.896 133.035 257.705 120.477 265.646 124.345Z" fill="#444053"/>
</g>
<defs>
<clipPath id="clip0">
<rect width="420" height="300" fill="white"/>
</clipPath>
</defs>
</svg>
