<svg width="420" height="320" viewBox="0 0 420 320" fill="none" xmlns="http://www.w3.org/2000/svg">
<path d="M398.021 298.185C398.021 310.233 308.922 320 199.011 320C89.099 320 0 310.233 0 298.185C0 289.657 44.6618 282.268 109.751 278.684C136.592 277.201 166.919 276.371 199.011 276.371C212.203 276.371 225.094 276.512 237.561 276.779C329.022 278.749 398.021 287.583 398.021 298.185Z" fill="#3F3D56"/>
<path opacity="0.1" d="M173.332 302.642C215.523 302.642 249.726 299.597 249.726 295.84C249.726 292.083 215.523 289.037 173.332 289.037C131.14 289.037 96.9374 292.083 96.9374 295.84C96.9374 299.597 131.14 302.642 173.332 302.642Z" fill="black"/>
<path d="M173.011 300.766C212.898 300.766 245.232 275.561 245.232 244.47C245.232 213.379 212.898 188.174 173.011 188.174C133.124 188.174 100.789 213.379 100.789 244.47C100.789 275.561 133.124 300.766 173.011 300.766Z" fill="#3F3D56"/>
<path d="M195.801 277.778H150.863V307.803H195.801V277.778Z" fill="#736961"/>
<path d="M254.541 285.05L251.973 295.371L268.664 297.247L279.578 292.556L278.936 285.05H254.541Z" fill="#575A89"/>
<path d="M170.443 91.2992C170.443 91.2992 169.159 102.089 165.949 102.558C162.739 103.027 173.011 121.793 173.011 121.793H188.418L200.615 119.447L194.838 109.126C194.838 109.126 187.134 101.62 192.912 95.5214C198.69 89.4227 170.443 91.2992 170.443 91.2992Z" fill="#A0616A"/>
<path opacity="0.1" d="M170.443 91.2992C170.443 91.2992 169.159 102.089 165.949 102.558C162.739 103.027 173.011 121.793 173.011 121.793H188.418L200.615 119.447L194.838 109.126C194.838 109.126 187.134 101.62 192.912 95.5214C198.69 89.4227 170.443 91.2992 170.443 91.2992Z" fill="black"/>
<path d="M138.344 173.866C138.344 173.866 121.653 197.323 135.135 202.014C148.616 206.705 151.826 206.236 151.826 207.643C151.826 209.051 149.258 208.582 150.542 210.927C151.826 213.273 147.974 222.656 151.826 228.285C155.678 233.915 154.394 238.137 154.394 238.137C154.394 238.137 154.394 238.606 155.678 240.483C156.962 242.359 157.604 243.766 156.962 244.705C156.32 245.643 152.468 251.742 156.32 253.149C160.171 254.556 180.072 255.495 181.998 253.149C183.924 250.803 180.072 249.396 181.998 247.989C183.924 246.581 185.208 246.112 183.924 245.174C182.64 244.236 181.356 232.507 181.356 232.507C181.356 232.507 184.566 218.903 183.282 217.026C181.998 215.149 180.072 213.273 181.356 211.866C182.64 210.458 183.924 210.927 184.566 209.051C185.208 207.174 186.492 202.952 186.492 202.952L193.554 202.483L210.245 204.829C210.245 204.829 228.862 219.841 249.405 224.532C249.405 224.532 255.183 228.754 257.109 228.754C259.035 228.754 259.035 228.754 258.393 229.693C257.751 230.631 255.825 230.631 257.109 231.569C258.393 232.507 260.319 231.1 259.035 232.507C257.751 233.915 256.467 233.915 257.751 234.853C259.035 235.791 257.109 240.952 257.109 241.421C257.109 241.89 251.331 285.988 253.257 286.926C255.183 287.865 282.146 290.679 284.072 286.926C285.997 283.173 282.788 278.482 282.788 278.482C282.788 278.482 292.417 222.186 289.849 218.433C287.281 214.68 278.294 197.792 230.146 187.002C230.146 187.002 216.665 185.125 216.665 183.718C216.665 182.31 215.381 173.397 212.813 172.928C210.245 172.459 195.48 171.99 195.48 171.99L176.863 176.212L151.184 172.928L138.344 173.866Z" fill="#2F2E41"/>
<path d="M160.813 252.68L157.604 261.124C157.604 261.124 155.036 274.729 158.246 278.013C160.767 280.592 165.268 283.751 173.617 284.305C175.957 284.462 178.3 284.03 180.259 283.082C182.217 282.134 183.674 280.725 184.388 279.089C184.484 278.894 184.544 278.689 184.566 278.482C184.566 277.544 182.64 266.285 182.64 266.285L179.431 254.556L178.789 251.272L160.813 252.68Z" fill="#2F2E41"/>
<path d="M254.541 293.025C254.541 293.025 251.331 290.679 250.689 293.025C250.047 295.371 247.479 305.222 251.973 305.692C256.467 306.161 299.479 310.852 303.973 308.975C308.466 307.099 316.812 304.284 311.676 302.877C306.54 301.469 291.775 297.247 291.775 297.247C291.775 297.247 283.43 289.272 282.146 288.803C280.862 288.334 273.8 289.272 270.59 291.149C267.38 293.025 254.541 293.025 254.541 293.025Z" fill="#2F2E41"/>
<path d="M185.85 101.151C196.841 101.151 205.751 94.6396 205.751 86.6077C205.751 78.5758 196.841 72.0647 185.85 72.0647C174.859 72.0647 165.949 78.5758 165.949 86.6077C165.949 94.6396 174.859 101.151 185.85 101.151Z" fill="#A0616A"/>
<path d="M183.924 119.447L176.221 113.348L167.682 101.151C167.682 101.151 161.455 99.7434 160.171 102.089C158.888 104.435 135.777 111.941 135.777 111.941C135.777 111.941 141.554 151.348 138.986 155.101C136.419 158.854 131.925 173.866 135.777 175.273C139.628 176.681 157.604 175.273 163.381 177.15C169.159 179.026 185.85 179.026 190.344 176.681C194.838 174.335 196.122 172.459 200.616 173.866C204.441 175.064 213.385 134.102 215.96 121.895C216.177 120.87 215.996 119.821 215.44 118.867C214.883 117.912 213.971 117.091 212.809 116.496C207.049 113.543 196.674 108.455 194.838 109.126C192.27 110.064 183.924 119.447 183.924 119.447Z" fill="#575A89"/>
<path d="M211.529 117.57C213.036 117.846 214.393 118.452 215.415 119.307C216.438 120.162 217.078 121.225 217.249 122.353L222.442 156.508C222.442 156.508 209.603 176.681 203.183 163.076C196.764 149.471 211.529 117.57 211.529 117.57Z" fill="#575A89"/>
<path d="M210.245 159.792L224.368 156.977C224.368 156.977 226.936 170.113 229.504 170.113C232.072 170.113 220.516 177.619 214.739 176.681C208.961 175.743 200.615 172.459 199.973 170.113C199.332 167.767 205.751 157.916 205.751 157.916L210.245 159.792Z" fill="#575A89"/>
<path d="M170.827 92.8813C172.18 90.7008 171.945 88.1573 173.064 85.907C173.663 84.702 174.635 83.6145 175.905 82.7296C177.174 81.8446 178.706 81.186 180.381 80.8054C182.057 80.4247 183.83 80.3323 185.562 80.5352C187.294 80.7382 188.939 81.231 190.367 81.9753C191.806 82.7252 193.249 83.7787 195.006 83.6356C196.897 83.4814 198.585 81.9392 200.324 82.5044C202.252 83.1309 201.731 85.6555 203.684 86.2386C204.712 86.5455 205.927 86.0729 206.52 85.3868C207.038 84.6657 207.321 83.8666 207.345 83.0523C207.615 81.0514 207.858 78.9338 206.671 77.1202C206.171 76.5054 205.736 75.8641 205.369 75.2015C205.161 74.5827 205.077 73.9451 205.121 73.3088C205.11 70.957 204.875 68.5039 203.256 66.4716C201.458 64.2165 198.136 62.7744 194.67 62.1452C191.205 61.5159 187.573 61.6124 184.015 61.8326C178.132 62.1965 171.998 62.9766 167.363 65.6489C166.733 65.9852 166.191 66.4015 165.763 66.8778C165.356 67.4438 165.068 68.0513 164.91 68.68C163.908 71.6618 162.406 74.5418 160.437 77.2544C159.49 78.4043 158.716 79.6258 158.129 80.8974C157.637 82.1896 157.67 83.6622 158.699 84.7728C159.537 85.677 160.876 86.1589 161.928 86.8981C162.97 87.6307 163.458 89.0394 164.613 89.5941C165.621 90.0783 166.829 89.7365 167.857 90.2497C169.177 90.9086 169.272 92.3534 170.827 92.8813Z" fill="#2F2E41"/>
<path d="M187.134 126.484L189.06 123.669C189.06 123.669 217.307 129.768 223.084 135.397C223.084 135.397 237.208 128.83 244.911 129.768L252.615 130.706L228.862 146.187L198.69 144.311L187.134 126.484Z" fill="#F2F2F2"/>
<path d="M185.85 123.669L159.529 150.409L197.406 164.014C197.406 164.014 200.947 165.422 203.67 164.014L228.862 155.57L252.615 130.706L228.862 139.619C228.862 139.619 226.294 135.866 221.158 137.743L185.85 123.669Z" fill="#736961"/>
<path d="M226.294 171.051L231.43 161.199C231.43 161.199 242.986 150.409 236.566 145.249C230.146 140.089 223.084 160.261 223.084 160.261L226.294 171.051Z" fill="#A0616A"/>
<path d="M167.039 169.479L178.245 162.84C178.245 162.84 195.649 157.743 193.639 150.925C191.628 144.108 171.67 158.968 171.67 158.968L167.039 169.479Z" fill="#A0616A"/>
<path opacity="0.1" d="M139.307 122.027H138.665C138.665 122.027 128.715 113.348 126.789 125.077C124.863 136.805 118.443 175.743 135.135 177.15C151.826 178.557 163.702 171.286 163.702 171.286C163.702 171.286 175.9 157.681 171.406 157.681C169.232 157.681 163.318 156.967 157.925 157.212C152.171 157.473 147.001 158.657 147.332 157.447C147.974 155.101 157.283 125.311 139.307 122.027Z" fill="black"/>
<path d="M138.344 112.879L135.777 111.941C135.777 111.941 125.505 113.348 123.579 125.076C121.653 136.805 115.234 175.742 131.925 177.15C148.616 178.557 171.085 175.273 171.085 175.273C171.085 175.273 175.579 157.446 171.085 157.446C166.591 157.446 143.48 159.792 144.122 157.446C144.764 155.101 156.32 116.163 138.344 112.879Z" fill="#575A89"/>
<path d="M216.986 165.656L224.065 157.728L228.541 170.817L216.986 174.57V165.656Z" fill="#575A89"/>
<path d="M71.5624 52.5958C81.1352 52.5958 88.8956 46.9249 88.8956 39.9293C88.8956 32.9338 81.1352 27.2628 71.5624 27.2628C61.9895 27.2628 54.2292 32.9338 54.2292 39.9293C54.2292 46.9249 61.9895 52.5958 71.5624 52.5958Z" fill="#F2F2F2"/>
<path d="M92.1054 134.224H51.0193V164.249H92.1054V134.224Z" fill="#F2F2F2"/>
<path d="M238.813 0L249.212 13.1624L259.611 26.3248H238.813H218.015L228.413 13.1624L238.813 0Z" fill="#F2F2F2"/>
</svg>
