<svg width="100" height="100" viewBox="0 0 100 100" fill="none" xmlns="http://www.w3.org/2000/svg">
<rect width="100" height="100" rx="50" fill="white" fill-opacity="0.3"/>
<path d="M50 0C22.3855 0 0 22.3855 0 50C0 77.6145 22.3855 100 50 100C77.6145 100 100 77.6145 100 50C100 22.3855 77.6145 0 50 0Z" fill="#323232" fill-opacity="0.3"/>
<path d="M74.3241 28.7796L65.3937 73.8051C65.3937 73.8051 64.1448 76.9277 60.7101 75.4289L40.1015 59.6291L32.6077 56.0073L19.9929 51.7605C19.9929 51.7605 18.0569 51.0738 17.8694 49.575C17.6823 48.0762 20.0554 47.2645 20.0554 47.2645L70.2023 27.5929C70.2023 27.5929 74.3241 25.782 74.3241 28.7796Z" fill="white"/>
<path d="M38.5269 73.2774C38.5269 73.2774 37.9254 73.2211 37.1758 70.8477C36.4265 68.4747 32.6172 55.9851 32.6172 55.9851L62.9051 36.7512C62.9051 36.7512 64.6539 35.6895 64.5914 36.7512C64.5914 36.7512 64.9035 36.9383 63.9668 37.8125C63.0301 38.6871 40.1734 59.2323 40.1734 59.2323" fill="#323232"/>
<path d="M47.9991 65.6654L39.8476 73.0976C39.8476 73.0976 39.2105 73.5812 38.5132 73.2781L40.0742 59.4727" fill="#323232"/>
</svg>
